<svg xmlns="http://www.w3.org/2000/svg" width="36" height="36" viewBox="0 0 36 36">
    <g fill="none" fill-rule="evenodd">
        <g>
            <g>
                <path fill="#232A35" d="M17.564.016C7.87.016.012 7.874.012 17.568c0 9.693 7.858 17.551 17.552 17.551 9.693 0 17.551-7.858 17.551-17.551 0-9.694-7.858-17.552-17.551-17.552" transform="translate(-1469 -4466) translate(1469 4466)"/>
                <path fill="#F7F7F5" d="M22.57 11.065V7.912s-3.223-.03-3.442-.03c-1.457 0-3.552 1.657-3.552 3.537v3.375h-3.02v3.58h2.979v8.88h3.525v-8.921h3.115l.396-3.498H19.1v-2.568c0-.617.464-1.22 1.16-1.22.465 0 2.31.018 2.31.018" transform="translate(-1469 -4466) translate(1469 4466)"/>
            </g>
        </g>
    </g>
</svg>
