<svg xmlns="http://www.w3.org/2000/svg" xmlns:xlink="http://www.w3.org/1999/xlink" width="36" height="36" viewBox="0 0 36 36">
    <defs>
        <path id="4985ya2kma" d="M0 0.016L35.103 0.016 35.103 35.119 0 35.119z"/>
    </defs>
    <g fill="none" fill-rule="evenodd">
        <g>
            <g transform="translate(-1417 -4466) translate(1417 4466)">
                <mask id="kukk0n4s7b" fill="#fff">
                    <use xlink:href="#4985ya2kma"/>
                </mask>
                <path fill="#232A35" d="M0 17.568c0 9.693 7.858 17.551 17.552 17.551 9.693 0 17.551-7.858 17.551-17.551 0-9.694-7.858-17.552-17.551-17.552C7.858.016 0 7.874 0 17.568" mask="url(#kukk0n4s7b)"/>
                <path fill="#F7F7F5" d="M13.704 9.744c-2.193 0-3.976 1.784-3.976 3.976v7.695c0 2.193 1.783 3.976 3.976 3.976h7.695c2.193 0 3.976-1.783 3.976-3.976V13.72c0-2.192-1.783-3.976-3.976-3.976h-7.695zm7.695 17.892h-7.695c-3.43 0-6.22-2.79-6.22-6.22V13.72c0-3.43 2.79-6.22 6.22-6.22h7.695c3.43 0 6.22 2.79 6.22 6.22v7.695c0 3.43-2.79 6.22-6.22 6.22z" mask="url(#kukk0n4s7b)"/>
                <path fill="#F7F7F5" d="M17.552 14.441c-1.724 0-3.127 1.403-3.127 3.127 0 1.723 1.403 3.126 3.127 3.126 1.723 0 3.126-1.403 3.126-3.126 0-1.724-1.403-3.127-3.126-3.127m0 8.273c-2.838 0-5.147-2.309-5.147-5.146 0-2.838 2.309-5.147 5.147-5.147 2.837 0 5.146 2.309 5.146 5.147 0 2.837-2.309 5.146-5.146 5.146M23.828 12.122c0 .48-.39.87-.87.87s-.87-.39-.87-.87.39-.87.87-.87.87.39.87.87" mask="url(#kukk0n4s7b)"/>
            </g>
        </g>
    </g>
</svg>
