<svg xmlns="http://www.w3.org/2000/svg" width="36" height="36" viewBox="0 0 36 36">
    <g fill="none" fill-rule="evenodd">
        <g>
            <g>
                <path fill="#232A35" d="M17.552 0C7.858 0 0 7.858 0 17.552c0 9.693 7.858 17.551 17.552 17.551 9.693 0 17.551-7.858 17.551-17.551C35.103 7.858 27.245 0 17.552 0" transform="translate(-1521 -4466) translate(1521 4466)"/>
                <g fill="#FFF" fill-rule="nonzero">
                    <path d="M20.088 2.838c-.23-.857-.906-1.532-1.763-1.762C16.76.647 10.5.647 10.5.647s-6.26 0-7.825.412c-.84.23-1.533.923-1.763 1.78C.5 4.402.5 7.646.5 7.646s0 3.262.412 4.81c.23.856.906 1.532 1.763 1.762 1.581.428 7.825.428 7.825.428s6.26 0 7.825-.411c.857-.231 1.532-.906 1.763-1.763.412-1.564.412-4.81.412-4.81s.016-3.26-.412-4.825zM8.507 10.645V4.65l5.205 2.997-5.205 2.998z" transform="translate(-1521 -4466) translate(1521 4466) translate(7 10)"/>
                </g>
            </g>
        </g>
    </g>
</svg>
