<svg width="304" height="200" viewBox="0 0 304 200" fill="none" xmlns="http://www.w3.org/2000/svg">
<mask id="mask0_1192_59740" style="mask-type:luminance" maskUnits="userSpaceOnUse" x="15" y="30" width="274" height="140">
<rect x="15.0001" y="30" width="274" height="140" fill="white"/>
</mask>
<g mask="url(#mask0_1192_59740)">
</g>
<g clip-path="url(#clip0_1192_59740)">
<path fill-rule="evenodd" clip-rule="evenodd" d="M134.397 157.949C131.831 134.914 115.983 135.143 111.529 135.219C97.5757 135.46 81.6329 144.865 81.4746 144.958L62.7585 156.112L73.2599 140.038C78.2491 132.406 78.8431 125.989 75.0239 120.965C66.3814 109.597 38.4029 107.313 38.1224 107.292L20.9275 104.637L38.511 101.028C51.4727 98.9135 60.4634 96.8575 63.8868 91.498C68.1636 84.8058 61.5733 74.1228 61.5271 74.0476L55.3773 66.2285L68.7439 68.2068C72.7417 69.4204 74.7991 69.763 78.2374 69.1694L81.3775 68.5786C99.9854 69.2284 107.184 50.872 107.25 50.6668C107.316 50.4616 108.95 43.0413 108.95 43.0413L114.561 47.719C119.377 52.1593 126.457 56.6532 133.608 56.5294C152.359 56.2053 171.51 39.0039 171.713 38.8501L178.695 33.6975L180.732 41.0293C183.528 51.0278 191.908 58.0532 205.649 61.8937C216.473 64.9171 226.69 64.7971 226.791 64.7948L235.141 64.663L231.969 70.3666C225.129 82.6154 226.684 93.5342 236.593 102.818C244.171 109.92 253.77 113.363 253.87 113.399L269.717 118.998L252.56 120.916C206.762 126.034 208.806 146.401 208.832 146.605L209.791 154.156L200.904 150.328C194.035 147.366 186.865 145.929 179.59 146.054C158.084 146.424 141.659 160.206 141.494 160.345L137.055 162.879C137.055 162.879 135.748 163.929 134.397 157.949Z" fill="white"/>
<path fill-rule="evenodd" clip-rule="evenodd" d="M78.8459 125.236C80.0574 120.929 79.4515 117.145 76.9992 113.941C68.432 102.741 40.7029 100.486 40.4251 100.465L36.7728 100.184L23.28 104.883L40.1799 107.486C40.4577 107.508 68.1868 109.763 76.754 120.962C77.769 122.288 78.4592 123.716 78.8459 125.236ZM256.842 113.027L255.201 113.21C209.433 118.295 211.479 138.561 211.505 138.763L211.876 141.673C213.893 135.412 222.118 123.951 254.954 120.303L272.099 118.397L256.842 113.027ZM182.868 138.626C190.161 138.512 197.353 139.917 204.242 142.805L211.937 146.026C211.941 146.081 211.945 146.117 211.945 146.123L212.914 153.467L204.345 151.841C197.456 148.954 188.57 147.798 181.277 147.912C159.715 148.249 144.943 160.358 144.778 160.493L135.473 167.998C135.473 167.998 134.099 168.921 133.665 159.151C132.113 137.797 118.487 136.67 114.021 136.74C100.031 136.959 84.4089 144.297 84.2505 144.387L65.4969 155.212L72.9721 144.106L84.4926 137.457C84.651 137.366 100.626 128.239 114.615 128.02L114.616 128.02C119.083 127.95 132.672 127.74 135.269 150.138L136.346 159.365L144.687 152.481C144.852 152.346 161.306 138.964 182.868 138.626Z" fill="#FC8EA7"/>
<path fill-rule="evenodd" clip-rule="evenodd" d="M255.168 119.556C253.331 119.782 251.406 120.014 249.539 120.295C242.048 121.472 234.582 123.175 227.719 126.033C224.311 127.472 221.057 129.187 218.222 131.281C216.784 132.309 215.492 133.457 214.284 134.648C213.105 135.86 213.769 131.046 212.891 132.402C212.023 133.761 208.498 140.115 206.945 143.743C206.467 145.221 208.381 145.743 208.385 147.338C208.385 147.539 208.395 147.741 208.412 147.967C208.416 148.046 208.444 148.293 208.455 148.334L208.498 148.59L209.142 152.432L203.297 150.099C199.8 148.76 196.079 147.727 192.242 147.107C184.546 145.811 176.552 146.48 169.393 148.286C165.798 149.207 162.408 150.454 159.172 151.857C155.925 153.251 152.888 154.88 150.009 156.634C147.153 158.402 144.403 160.29 142.039 162.428L135.504 168.023L134.456 159.378C134.21 157.854 134.047 156.324 133.733 154.805C133.36 153.292 133.088 151.766 132.518 150.276C131.542 147.289 130.185 144.29 127.765 141.68C127.111 141.057 126.555 140.374 125.762 139.828C125.379 139.548 125.038 139.236 124.619 138.983L123.348 138.234C121.574 137.311 119.52 136.666 117.388 136.383C116.325 136.225 115.245 136.184 114.186 136.166C113.141 136.143 112.077 136.236 111.02 136.271C109.965 136.337 108.936 136.497 107.888 136.598C106.869 136.776 105.834 136.925 104.824 137.129C100.784 137.952 96.9352 139.163 93.2418 140.56C89.55 141.973 86.0016 143.541 82.5892 145.336L71.0272 151.769L73.698 147.973L77.32 142.805C78.5667 141.036 79.6991 139.134 80.5847 137.16C81.4636 135.179 82.1369 133.095 82.3245 130.899C82.5172 128.714 82.2819 126.41 81.2971 124.199C80.3465 121.974 78.6508 119.956 76.6841 118.246C74.7053 116.519 72.3951 115.099 69.9834 113.887C67.566 112.676 65.0359 111.66 62.454 110.799C59.8609 109.955 57.2234 109.248 54.564 108.641C49.2344 107.46 43.8468 106.586 38.2934 106.197C33.7872 105.89 29.2817 105.576 24.776 105.267L39.3403 102.662C40.3412 102.467 41.3483 102.294 42.3439 102.078C46.3301 101.242 50.2643 100.169 53.9543 98.6536C57.6101 97.1261 61.0872 95.1333 63.5189 92.4398C65.9918 89.7641 67.0212 86.4431 66.9046 83.2842C66.8461 81.6936 66.5092 80.1236 65.9683 78.5993C65.7043 77.8352 65.3721 77.0857 64.9917 76.3431C64.803 75.9703 64.5961 75.6069 64.3492 75.2215L63.6639 74.2088C62.2231 72.0959 60.8045 69.976 59.3964 67.8528C62.5627 68.4586 67.8415 69.4318 70.1265 69.6376C84.6245 70.9433 92.9397 68.188 94.6874 67.2688C98.1837 65.4132 100.906 62.9495 103.084 60.3102C105.252 57.6566 106.936 54.8205 108.231 51.8788C108.547 51.148 108.875 50.3868 109.108 49.6272L110.443 45.566L114.862 50.1007C117.256 52.3987 120.192 54.4737 123.854 55.8425C127.479 57.2105 131.683 57.7895 135.589 57.5588C139.544 57.4741 143.296 56.7287 146.888 55.8251C154.068 53.9458 160.526 51.0951 166.551 47.9013C169.563 46.288 172.437 44.5774 175.231 42.7179L178.847 40.159L179.62 43.0796C180.305 45.6451 181.379 48.2239 182.94 50.6625C186.012 55.5785 191.281 59.774 197.399 62.6386C203.528 65.5379 210.331 67.2831 217.181 68.3071C220.622 68.8044 224.064 69.1432 227.607 69.2578C228.054 69.2722 228.495 69.2826 228.974 69.286L230.315 69.2764L231.658 69.2629C231.289 69.9149 230.922 70.5311 230.552 71.2193L229.417 73.3596C227.999 76.2526 226.943 79.2952 226.432 82.4449C225.922 85.5894 225.967 88.8548 226.814 92.0527C227.632 95.2506 229.175 98.3607 231.284 101.206C235.537 106.909 241.726 111.544 248.755 115.103C250.543 115.993 252.314 116.806 254.353 117.576L258.839 119.132L255.168 119.556ZM257.931 112.198C256.434 111.617 254.82 110.868 253.32 110.098C250.275 108.552 247.433 106.776 244.899 104.82C242.391 102.848 240.196 100.688 238.476 98.3803C236.759 96.0706 235.532 93.6032 234.868 91.0505C234.202 88.4985 234.098 85.8646 234.467 83.2348C234.84 80.6044 235.681 77.9796 236.88 75.4168L237.85 73.505C238.176 72.8664 238.574 72.1727 238.932 71.5091L243.397 63.3613L229.955 63.6417L228.822 63.6632L227.713 63.6517C224.651 63.5878 221.506 63.3155 218.436 62.905C212.297 62.0605 206.299 60.562 201.131 58.1889C195.955 55.8356 191.744 52.5305 189.074 48.5413C187.731 46.5477 186.765 44.4149 186.101 42.1845L182.689 30.6289L171.028 39.4208C168.525 41.1998 165.823 42.9052 163.053 44.5049C157.509 47.7036 151.54 50.5614 145.108 52.4553C141.899 53.3696 138.573 54.1305 135.213 54.2904C131.868 54.5924 128.563 54.2006 125.567 53.1729C122.57 52.1573 119.922 50.4331 117.735 48.4728L108.782 39.8983L106.211 49.0883C106.022 49.8082 105.768 50.4956 105.484 51.207C104.329 54.0196 102.784 56.7599 100.809 59.2863C98.8186 61.7941 96.3683 64.1313 93.2362 65.7916C90.1358 67.4714 76.456 68.4181 70.7979 67.9935C67.3744 67.7365 57.3838 65.587 57.3838 65.587L54.8981 65.1409L56.0154 66.856C57.7838 69.57 59.5391 72.2882 61.259 75.0184L61.908 76.0408C62.0862 76.3399 62.2663 76.6744 62.4223 77.0099C62.7393 77.6809 63.02 78.3686 63.2341 79.0647C63.6769 80.4546 63.9279 81.8721 63.9298 83.2726C63.9483 86.0757 62.8853 88.7935 60.6972 90.9671C58.5314 93.1587 55.4232 94.8104 52.0464 96.0826C48.6409 97.3436 44.9339 98.2316 41.1372 98.8979C40.1917 99.0726 35.2912 100.681 35.2912 100.681L16.0783 106.015C16.0783 106.015 47.9661 110.367 52.6554 113.51C55.0811 114.073 57.4592 114.721 59.7464 115.474C62.0404 116.214 64.2383 117.069 66.2661 118.054C70.3233 120.002 73.6591 122.608 75.0569 125.652C76.5545 128.706 76.1996 132.303 74.8157 135.749C74.1359 137.489 73.2006 139.167 72.1507 140.886L68.8886 146.187L58.1739 163.667L84.4816 147.138C87.5855 145.298 90.9297 143.59 94.4174 142.112C97.9073 140.631 101.552 139.331 105.371 138.406C106.325 138.177 107.3 138.002 108.265 137.796C109.248 137.665 110.231 137.499 111.223 137.411C112.222 137.36 113.203 137.246 114.223 137.246C115.224 137.241 116.218 137.257 117.191 137.38C119.145 137.596 121.021 138.138 122.688 138.95L123.889 139.616C124.287 139.841 124.616 140.128 124.985 140.382C125.749 140.873 126.301 141.515 126.948 142.092C129.326 144.551 130.713 147.479 131.731 150.41C132.3 151.874 132.576 153.386 132.951 154.881C133.268 156.384 133.437 157.903 133.688 159.413L134.766 169.699L142.845 162.953C145.252 160.91 148.028 159.125 150.91 157.454C153.812 155.804 156.845 154.271 160.074 153.005C163.309 151.755 166.66 150.671 170.146 149.916C177.1 148.417 184.546 148.165 191.459 149.645C194.916 150.361 198.229 151.445 201.33 152.803L214.829 158.952L213.863 148.041C213.85 147.911 213.862 147.986 213.86 147.894C213.862 147.777 213.865 147.635 213.878 147.494C214.07 145.156 215.12 142.729 216.683 140.604C219.774 136.266 225.136 132.954 231.22 130.64C237.302 128.26 244.166 126.82 251.163 125.87C252.931 125.641 254.662 125.433 256.48 125.231L285.752 122.122L257.931 112.198Z" fill="#FC8EA7"/>
<path fill-rule="evenodd" clip-rule="evenodd" d="M178.035 107.685L179.369 96.6533H181.223L181.62 93.3782H179.766L180.003 91.4132H174.002L173.764 93.3782H163.582L163.186 96.6533H173.368L172.434 104.376H171.22L170.082 97.8943H163.845L165.275 105.582H169.826L170.55 107.685H178.035ZM164.341 87.104L163.953 90.31H181.957L182.345 87.104H176.243L176.685 83.4496H181.742L182.117 80.3468H177.06L177.423 77.3477H171.287L170.924 80.3468H166.17L165.795 83.4496H170.549L170.107 87.104H164.341ZM156.697 94.2746H158.113L156.987 103.583H155.571L156.697 94.2746ZM158.211 81.7603H159.627L158.513 90.9651H157.098L158.211 81.7603ZM153.895 78.4163L150.459 106.823H161.248L164.684 78.4163H153.895ZM129.447 107.72L133.068 77.7958H149.082L147.18 93.5162H136.897L136.768 94.5848H141.825L142.688 96.9292L143.688 94.5158H148.104L146.177 99.8595H143.749L146.574 107.72H140.573L136.551 96.3774L135.575 104.445H138.609L136.797 107.72H129.447ZM143.03 81.0016H138.411L138.044 84.0356H142.663L143.03 81.0016ZM142.275 87.2417H137.656L137.289 90.2755H141.908L142.275 87.2417ZM116.703 107.72L120.323 77.7958H131.82L130.498 88.7243L127.951 90.5512L130.064 92.3096L128.675 103.79H122.337L121.861 107.72H116.703ZM126.405 81.0363H125.09L124.101 89.2068H125.416L126.405 81.0363ZM125.011 92.5509H123.696L122.733 100.514H124.048L125.011 92.5509ZM72.2788 85.7251L70.5477 90.0001H67.0752L66.9668 90.8963H70.608L70.9668 91.5513L73.1892 85.7251H72.2788ZM66.5064 93.3094L66.1644 96.1364H63.2311L62.9393 98.5496H65.2992L64.9154 101.721H62.5555L62.2717 104.066L65.2259 103.893L64.8964 106.617L68.1186 98.6531L66.5064 93.3094ZM56.5437 86.7594L55.7911 88.2417H66.4116L66.9954 86.7594H56.5437ZM56.7587 80.2438L54.1819 85.3803H56.1374L56.7587 80.2438ZM71.1406 108.789L70.066 105.41L68.6794 108.789H64.0603L64.7032 107.099L53.1863 107.823L53.57 104.652L56.8653 104.445L57.1948 101.721H54.7336L55.1173 98.5496H57.5785L57.8705 96.1364H54.8698L55.2492 92.9992H66.3752L65.9772 91.5513H55.121L55.4338 88.9656L53.3027 93.2062H54.3142L52.4289 108.789H46.7311L48.4619 94.4816H46.8435L50.7567 86.3801H47.7902L52.0488 78.2096H57.8138L57.1121 79.5541H59.0675L58.5961 83.4498H59.54L60.1615 78.3131H65.0503L64.4287 83.4498H65.4063L65.8778 79.5541H68.0017L67.1759 86.3801L70.4152 78.2787H75.1689L73.5599 82.3811H78.8194L78.4149 85.7251H78.0103L72.8425 98.3429L76.0291 108.789H71.1406ZM79.7401 107.099H87.3594L99.292 88.4487H91.6386L79.7401 107.099ZM105.205 108.685L107.837 86.9317H112.152L112.59 83.312H108.275L108.871 78.382H102.297L101.692 83.3808H82.5419L82.1125 86.9317H101.262L99.0477 105.238H91.8665L92.9329 108.685H105.205Z" fill="#2B3340"/>
<path d="M179.369 96.6533V93.1792C177.612 93.1792 176.131 94.4915 175.92 96.2361L179.369 96.6533ZM178.035 107.685V111.159C179.792 111.159 181.273 109.847 181.484 108.102L178.035 107.685ZM181.223 96.6533V100.127C182.981 100.127 184.461 98.8153 184.672 97.0707L181.223 96.6533ZM181.62 93.3782L185.069 93.7956C185.188 92.8086 184.879 91.8179 184.22 91.0739C183.56 90.3299 182.614 89.9041 181.62 89.9041V93.3782ZM179.766 93.3782L176.316 92.9612C176.197 93.9481 176.506 94.9388 177.166 95.6827C177.825 96.4266 178.771 96.8524 179.766 96.8524V93.3782ZM180.003 91.4132L183.452 91.8302C183.571 90.8433 183.262 89.8526 182.603 89.1087C181.944 88.3648 180.997 87.939 180.003 87.939V91.4132ZM174.002 91.4132V87.939C172.244 87.939 170.764 89.2514 170.553 90.9961L174.002 91.4132ZM173.764 93.3782V96.8524C175.522 96.8524 177.002 95.54 177.213 93.7953L173.764 93.3782ZM163.582 93.3782V89.9041C161.825 89.9041 160.344 91.2163 160.133 92.9609L163.582 93.3782ZM163.186 96.6533L159.737 96.236C159.618 97.2229 159.927 98.2137 160.586 98.9577C161.245 99.7016 162.192 100.127 163.186 100.127V96.6533ZM173.368 96.6533L176.817 97.0706C176.936 96.0837 176.627 95.093 175.968 94.349C175.308 93.6051 174.362 93.1792 173.368 93.1792V96.6533ZM172.434 104.376V107.85C174.191 107.85 175.671 106.537 175.883 104.793L172.434 104.376ZM171.22 104.376L167.798 104.976C168.09 106.638 169.533 107.85 171.22 107.85V104.376ZM170.082 97.8943L173.504 97.2939C173.213 95.6322 171.77 94.4202 170.082 94.4202V97.8943ZM163.845 97.8943V94.4202C162.813 94.4202 161.833 94.8796 161.173 95.6737C160.513 96.4678 160.241 97.5144 160.43 98.5296L163.845 97.8943ZM165.275 105.582L161.859 106.217C162.165 107.863 163.601 109.056 165.275 109.056V105.582ZM169.826 105.582L173.112 104.452C172.629 103.049 171.31 102.108 169.826 102.108V105.582ZM170.55 107.685L167.265 108.815C167.747 110.218 169.067 111.159 170.55 111.159V107.685ZM163.953 90.31L160.504 89.8927C160.385 90.8796 160.694 91.8704 161.353 92.6144C162.013 93.3583 162.959 93.7842 163.953 93.7842V90.31ZM164.341 87.104V83.6298C162.584 83.6298 161.103 84.9421 160.892 86.6867L164.341 87.104ZM181.957 90.31V93.7842C183.714 93.7842 185.195 92.4719 185.406 90.7273L181.957 90.31ZM182.345 87.104L185.794 87.5213C185.913 86.5344 185.604 85.5436 184.945 84.7996C184.286 84.0557 183.339 83.6298 182.345 83.6298V87.104ZM176.243 87.104L172.794 86.6865C172.674 87.6734 172.983 88.6642 173.643 89.4082C174.302 90.1522 175.248 90.5781 176.243 90.5781V87.104ZM176.685 83.4496V79.9755C174.928 79.9755 173.447 81.2876 173.236 83.0321L176.685 83.4496ZM181.742 83.4496V86.9237C183.499 86.9237 184.98 85.6115 185.191 83.8668L181.742 83.4496ZM182.117 80.3468L185.566 80.764C185.686 79.7771 185.377 78.7864 184.717 78.0424C184.058 77.2985 183.112 76.8726 182.117 76.8726V80.3468ZM177.06 80.3468L173.611 79.9296C173.492 80.9165 173.801 81.9072 174.46 82.6512C175.12 83.3951 176.066 83.8209 177.06 83.8209V80.3468ZM177.423 77.3477L180.872 77.7649C180.991 76.778 180.682 75.7872 180.023 75.0433C179.364 74.2993 178.417 73.8735 177.423 73.8735V77.3477ZM171.287 77.3477V73.8735C169.53 73.8735 168.049 75.1857 167.838 76.9302L171.287 77.3477ZM170.924 80.3468V83.8209C172.681 83.8209 174.162 82.5088 174.373 80.7642L170.924 80.3468ZM166.17 80.3468V76.8726C164.413 76.8726 162.932 78.1849 162.721 79.9296L166.17 80.3468ZM165.795 83.4496L162.346 83.0324C162.227 84.0193 162.536 85.01 163.195 85.754C163.854 86.4979 164.801 86.9237 165.795 86.9237V83.4496ZM170.549 83.4496L173.998 83.8669C174.117 82.88 173.808 81.8892 173.149 81.1453C172.489 80.4013 171.543 79.9755 170.549 79.9755V83.4496ZM170.107 87.104V90.5781C171.864 90.5781 173.344 89.2659 173.556 87.5212L170.107 87.104ZM158.113 94.2746L161.562 94.6919C161.682 93.705 161.373 92.7142 160.713 91.9703C160.054 91.2263 159.107 90.8005 158.113 90.8005V94.2746ZM156.697 94.2746V90.8005C154.94 90.8005 153.459 92.1127 153.248 93.8573L156.697 94.2746ZM156.987 103.583V107.057C158.744 107.057 160.225 105.745 160.436 104L156.987 103.583ZM155.571 103.583L152.122 103.165C152.003 104.152 152.312 105.143 152.971 105.887C153.63 106.631 154.577 107.057 155.571 107.057V103.583ZM159.627 81.7603L163.076 82.1775C163.195 81.1906 162.886 80.1999 162.227 79.4559C161.568 78.712 160.621 78.2862 159.627 78.2862V81.7603ZM158.211 81.7603V78.2862C156.454 78.2862 154.973 79.5984 154.762 81.343L158.211 81.7603ZM158.513 90.9651V94.4392C160.271 94.4392 161.751 93.1269 161.963 91.3823L158.513 90.9651ZM157.098 90.9651L153.649 90.5478C153.529 91.5347 153.838 92.5255 154.498 93.2694C155.157 94.0134 156.103 94.4392 157.098 94.4392V90.9651ZM150.459 106.823L147.01 106.406C146.891 107.393 147.2 108.384 147.859 109.128C148.518 109.872 149.465 110.297 150.459 110.297V106.823ZM153.895 78.4163V74.9422C152.138 74.9422 150.658 76.2545 150.446 77.9991L153.895 78.4163ZM161.248 106.823V110.297C163.005 110.297 164.486 108.985 164.697 107.241L161.248 106.823ZM164.684 78.4163L168.133 78.8336C168.253 77.8467 167.944 76.8559 167.284 76.112C166.625 75.368 165.679 74.9422 164.684 74.9422V78.4163ZM133.068 77.7958V74.3216C131.31 74.3216 129.83 75.6339 129.619 77.3785L133.068 77.7958ZM129.447 107.72L125.998 107.303C125.879 108.289 126.188 109.28 126.847 110.024C127.507 110.768 128.453 111.194 129.447 111.194V107.72ZM149.082 77.7958L152.531 78.213C152.65 77.2261 152.341 76.2354 151.682 75.4914C151.023 74.7475 150.076 74.3216 149.082 74.3216V77.7958ZM147.18 93.5162V96.9903C148.938 96.9903 150.418 95.678 150.629 93.9334L147.18 93.5162ZM136.897 93.5162V90.042C135.14 90.042 133.659 91.3541 133.448 93.0986L136.897 93.5162ZM136.768 94.5848L133.319 94.1673C133.199 95.1542 133.508 96.1451 134.168 96.8891C134.827 97.6331 135.774 98.059 136.768 98.059V94.5848ZM141.825 94.5848L145.086 93.385C144.583 92.0186 143.281 91.1107 141.825 91.1107V94.5848ZM142.688 96.9292L139.428 98.129C139.922 99.4715 141.188 100.374 142.618 100.403C144.048 100.431 145.35 99.5804 145.898 98.2588L142.688 96.9292ZM143.688 94.5158V91.0417C142.283 91.0417 141.016 91.888 140.478 93.1861L143.688 94.5158ZM148.104 94.5158L151.372 95.6948C151.756 94.6302 151.598 93.4452 150.947 92.5191C150.297 91.5929 149.236 91.0417 148.104 91.0417V94.5158ZM146.177 99.8595V103.334C147.641 103.334 148.948 102.416 149.445 101.038L146.177 99.8595ZM143.749 99.8595V96.3853C142.618 96.3853 141.558 96.9359 140.907 97.8611C140.257 98.7863 140.097 99.9702 140.48 101.035L143.749 99.8595ZM146.574 107.72V111.194C147.705 111.194 148.766 110.643 149.416 109.718C150.067 108.793 150.226 107.609 149.844 106.545L146.574 107.72ZM140.573 107.72L137.299 108.881C137.791 110.267 139.102 111.194 140.573 111.194V107.72ZM136.551 96.3774L139.825 95.2162C139.286 93.6962 137.772 92.747 136.169 92.9243C134.566 93.1017 133.296 94.359 133.102 95.9602L136.551 96.3774ZM135.575 104.445L132.126 104.027C132.007 105.014 132.316 106.005 132.975 106.749C133.634 107.493 134.581 107.919 135.575 107.919V104.445ZM138.609 104.445L141.649 106.127C142.245 105.051 142.227 103.74 141.602 102.68C140.978 101.621 139.839 100.97 138.609 100.97V104.445ZM136.797 107.72V111.194C138.061 111.194 139.225 110.508 139.837 109.402L136.797 107.72ZM138.411 81.0016V77.5275C136.654 77.5275 135.173 78.8398 134.962 80.5845L138.411 81.0016ZM143.03 81.0016L146.479 81.4188C146.598 80.4319 146.289 79.4412 145.63 78.6973C144.971 77.9533 144.024 77.5275 143.03 77.5275V81.0016ZM138.044 84.0356L134.595 83.6184C134.476 84.6053 134.785 85.5961 135.444 86.34C136.104 87.0839 137.05 87.5098 138.044 87.5098V84.0356ZM142.663 84.0356V87.5098C144.42 87.5098 145.901 86.1974 146.112 84.4528L142.663 84.0356ZM137.656 87.2417V83.7675C135.899 83.7675 134.418 85.0797 134.207 86.8243L137.656 87.2417ZM142.275 87.2417L145.724 87.6589C145.844 86.672 145.534 85.6813 144.875 84.9373C144.216 84.1934 143.269 83.7675 142.275 83.7675V87.2417ZM137.289 90.2755L133.84 89.858C133.721 90.8449 134.03 91.8358 134.689 92.5797C135.348 93.3237 136.295 93.7496 137.289 93.7496V90.2755ZM141.908 90.2755V93.7496C143.666 93.7496 145.146 92.4373 145.357 90.6927L141.908 90.2755ZM120.323 77.7958V74.3216C118.566 74.3216 117.085 75.6339 116.874 77.3785L120.323 77.7958ZM116.703 107.72L113.254 107.303C113.135 108.289 113.444 109.28 114.103 110.024C114.763 110.768 115.709 111.194 116.703 111.194V107.72ZM131.82 77.7958L135.269 78.213C135.388 77.2261 135.079 76.2354 134.42 75.4914C133.761 74.7475 132.814 74.3216 131.82 74.3216V77.7958ZM130.498 88.7243L132.523 91.5474C133.314 90.9803 133.83 90.1075 133.947 89.1415L130.498 88.7243ZM127.951 90.5512L125.926 87.7281C125.052 88.355 124.517 89.3515 124.479 90.4266C124.44 91.5016 124.902 92.5339 125.729 93.2219L127.951 90.5512ZM130.064 92.3096L133.513 92.7268C133.655 91.5559 133.193 90.3932 132.286 89.6389L130.064 92.3096ZM128.675 103.79V107.264C130.433 107.264 131.913 105.951 132.124 104.207L128.675 103.79ZM122.337 103.79V100.315C120.58 100.315 119.099 101.628 118.888 103.372L122.337 103.79ZM121.861 107.72V111.194C123.619 111.194 125.099 109.882 125.31 108.137L121.861 107.72ZM125.09 81.0363V77.5621C123.332 77.5621 121.852 78.8744 121.641 80.619L125.09 81.0363ZM126.405 81.0363L129.854 81.4536C129.973 80.4667 129.664 79.4759 129.005 78.732C128.345 77.988 127.399 77.5621 126.405 77.5621V81.0363ZM124.101 89.2068L120.652 88.7895C120.533 89.7764 120.842 90.7672 121.501 91.5111C122.161 92.2551 123.107 92.6809 124.101 92.6809V89.2068ZM125.416 89.2068V92.6809C127.173 92.6809 128.654 91.3687 128.865 89.6241L125.416 89.2068ZM123.696 92.5509V89.0768C121.939 89.0768 120.458 90.3891 120.247 92.1337L123.696 92.5509ZM125.011 92.5509L128.46 92.9683C128.58 91.9814 128.271 90.9906 127.611 90.2466C126.952 89.5027 126.006 89.0768 125.011 89.0768V92.5509ZM122.733 100.514L119.284 100.097C119.165 101.084 119.474 102.075 120.133 102.819C120.792 103.563 121.739 103.989 122.733 103.989V100.514ZM124.048 100.514V103.989C125.805 103.989 127.286 102.676 127.497 100.932L124.048 100.514ZM70.5477 90.0001V93.4742C71.963 93.4742 73.2367 92.6158 73.7679 91.304L70.5477 90.0001ZM72.2788 85.7251V82.251C70.8635 82.251 69.5898 83.1094 69.0586 84.4212L72.2788 85.7251ZM67.0752 90.0001V86.5259C65.3179 86.5259 63.8373 87.8382 63.6262 89.5827L67.0752 90.0001ZM66.9668 90.8963L63.5178 90.4789C63.3984 91.4658 63.7074 92.4566 64.3668 93.2006C65.0262 93.9445 65.9727 94.3704 66.9668 94.3704V90.8963ZM70.608 90.8963L73.655 89.2272C73.0453 88.1141 71.8771 87.4221 70.608 87.4221V90.8963ZM70.9668 91.5513L67.9199 93.2203C68.5707 94.4084 69.8527 95.1098 71.2042 95.0173C72.5556 94.9248 73.7301 94.0551 74.2129 92.7894L70.9668 91.5513ZM73.1892 85.7251L76.4352 86.9633C76.8425 85.8954 76.6986 84.6955 76.0502 83.7543C75.4019 82.8131 74.3321 82.251 73.1892 82.251V85.7251ZM66.1644 96.1364V99.6106C67.9217 99.6106 69.4023 98.2984 69.6134 96.5538L66.1644 96.1364ZM66.5064 93.3094L69.8325 92.306C69.3577 90.7321 67.8448 89.7065 66.207 89.8482C64.5692 89.9899 63.2549 91.2601 63.0574 92.8921L66.5064 93.3094ZM63.2311 96.1364V92.6623C61.4737 92.6623 59.9931 93.9747 59.7821 95.7194L63.2311 96.1364ZM62.9393 98.5496L59.4903 98.1325C59.3709 99.1194 59.68 100.11 60.3394 100.854C60.9988 101.598 61.9452 102.024 62.9393 102.024V98.5496ZM65.2992 98.5496L68.7482 98.9669C68.8676 97.98 68.5585 96.9892 67.8991 96.2453C67.2397 95.5013 66.2933 95.0755 65.2992 95.0755V98.5496ZM64.9154 101.721V105.195C66.6728 105.195 68.1534 103.883 68.3644 102.139L64.9154 101.721ZM62.5555 101.721V98.2471C60.7984 98.2471 59.3178 99.5592 59.1066 101.304L62.5555 101.721ZM62.2717 104.066L58.8227 103.648C58.699 104.67 59.0349 105.694 59.7398 106.445C60.4448 107.195 61.4462 107.594 62.474 107.534L62.2717 104.066ZM65.2259 103.893L68.6749 104.311C68.7985 103.289 68.4626 102.264 67.7576 101.514C67.0526 100.764 66.0513 100.365 65.0236 100.425L65.2259 103.893ZM64.8964 106.617L61.4474 106.2C61.2382 107.929 62.342 109.546 64.0287 109.981C65.7154 110.416 67.4636 109.535 68.1169 107.92L64.8964 106.617ZM68.1186 98.6531L71.3391 99.9561C71.6362 99.2218 71.6734 98.408 71.4446 97.6496L68.1186 98.6531ZM55.7911 88.2417L52.6934 86.669C52.1466 87.746 52.1984 89.0297 52.8303 90.0591C53.4621 91.0885 54.5833 91.7159 55.7911 91.7159V88.2417ZM56.5437 86.7594V83.2852C55.2355 83.2852 54.0382 84.0202 53.4459 85.1867L56.5437 86.7594ZM66.4116 88.2417V91.7159C67.8389 91.7159 69.121 90.8429 69.644 89.5149L66.4116 88.2417ZM66.9954 86.7594L70.2279 88.0325C70.6492 86.963 70.5141 85.7542 69.8671 84.8041C69.2201 83.8539 68.145 83.2852 66.9954 83.2852V86.7594ZM54.1819 85.3803L51.0766 83.8225C50.5364 84.8994 50.5927 86.1794 51.2255 87.2048C51.8582 88.2301 52.9771 88.8544 54.1819 88.8544V85.3803ZM56.7587 80.2438L60.2077 80.661C60.4105 78.9843 59.3781 77.4046 57.7611 76.9174C56.144 76.4301 54.4107 77.1764 53.6534 78.686L56.7587 80.2438ZM56.1374 85.3803V88.8544C57.8948 88.8544 59.3754 87.5421 59.5864 85.7975L56.1374 85.3803ZM70.066 105.41L73.3768 104.357C72.934 102.965 71.6674 101.998 70.2076 101.939C68.7479 101.879 67.4068 102.739 66.8521 104.091L70.066 105.41ZM71.1406 108.789L67.8299 109.842C68.2884 111.284 69.6275 112.263 71.1406 112.263V108.789ZM68.6794 108.789V112.263C70.0886 112.263 71.3583 111.411 71.8934 110.108L68.6794 108.789ZM64.0603 108.789L60.8133 107.553C60.407 108.621 60.5515 109.82 61.2 110.761C61.8484 111.701 62.9178 112.263 64.0603 112.263V108.789ZM64.7032 107.099L67.9501 108.335C68.3702 107.231 68.2007 105.99 67.5002 105.039C66.7996 104.088 65.664 103.558 64.4852 103.632L64.7032 107.099ZM53.1863 107.823L49.7373 107.406C49.6133 108.431 49.9514 109.457 50.66 110.208C51.3685 110.959 52.3741 111.355 53.4043 111.291L53.1863 107.823ZM53.57 104.652L53.3523 101.184C51.6809 101.289 50.3222 102.572 50.1211 104.234L53.57 104.652ZM56.8653 104.445L57.083 107.912C58.7545 107.807 60.1131 106.525 60.3143 104.862L56.8653 104.445ZM57.1948 101.721L60.6438 102.139C60.7632 101.152 60.4541 100.161 59.7947 99.4169C59.1353 98.673 58.1889 98.2471 57.1948 98.2471V101.721ZM54.7336 101.721L51.2846 101.304C51.1652 102.291 51.4742 103.282 52.1336 104.026C52.793 104.77 53.7395 105.195 54.7336 105.195V101.721ZM55.1173 98.5496V95.0755C53.3599 95.0755 51.8794 96.3877 51.6683 98.1323L55.1173 98.5496ZM57.5785 98.5496V102.024C59.3358 102.024 60.8164 100.712 61.0275 98.967L57.5785 98.5496ZM57.8705 96.1364L61.3195 96.5538C61.4389 95.5669 61.1299 94.5761 60.4705 93.8321C59.8111 93.0882 58.8646 92.6623 57.8705 92.6623V96.1364ZM54.8698 96.1364L51.4208 95.7194C51.3015 96.7063 51.6106 97.697 52.27 98.4409C52.9293 99.1848 53.8758 99.6106 54.8698 99.6106V96.1364ZM55.2492 92.9992V89.5251C53.4917 89.5251 52.0111 90.8375 51.8001 92.5822L55.2492 92.9992ZM66.3752 92.9992V96.4734C67.4592 96.4734 68.481 95.9674 69.1382 95.1053C69.7953 94.2432 70.0124 93.1237 69.7251 92.0785L66.3752 92.9992ZM65.9772 91.5513L69.3271 90.6306C68.9126 89.1224 67.5413 88.0771 65.9772 88.0771V91.5513ZM55.121 91.5513L51.672 91.1341C51.5527 92.121 51.8618 93.1117 52.5211 93.8557C53.1805 94.5996 54.127 95.0254 55.121 95.0254V91.5513ZM55.4338 88.9656L58.8828 89.3828C59.0856 87.7065 58.0538 86.1273 56.4373 85.6395C54.8208 85.1518 53.0878 85.8969 52.3296 87.4056L55.4338 88.9656ZM53.3027 93.2062L50.1985 91.6461C49.6573 92.7231 49.7129 94.0037 50.3456 95.0296C50.9782 96.0556 52.0974 96.6803 53.3027 96.6803V93.2062ZM54.3142 93.2062L57.7632 93.6234C57.8826 92.6365 57.5736 91.6458 56.9142 90.9018C56.2548 90.1579 55.3083 89.732 54.3142 89.732V93.2062ZM52.4289 108.789V112.263C54.1863 112.263 55.6668 110.951 55.8779 109.206L52.4289 108.789ZM46.7311 108.789L43.2821 108.371C43.1627 109.358 43.4718 110.349 44.1312 111.093C44.7905 111.837 45.737 112.263 46.7311 112.263V108.789ZM48.4619 94.4816L51.9109 94.8988C52.0303 93.9119 51.7212 92.9212 51.0619 92.1772C50.4025 91.4333 49.456 91.0074 48.4619 91.0074V94.4816ZM46.8435 94.4816L43.7152 92.9705C43.1952 94.0471 43.2653 95.3155 43.9008 96.3282C44.5363 97.3409 45.6479 97.9557 46.8435 97.9557V94.4816ZM50.7567 86.3801L53.885 87.8912C54.4051 86.8146 54.335 85.5462 53.6995 84.5335C53.0639 83.5208 51.9523 82.906 50.7567 82.906V86.3801ZM47.7902 86.3801L44.7094 84.7744C44.148 85.8513 44.1898 87.1432 44.8196 88.1817C45.4494 89.2201 46.5757 89.8543 47.7902 89.8543V86.3801ZM52.0488 78.2096V74.7355C50.7539 74.7355 49.5665 75.4556 48.968 76.6039L52.0488 78.2096ZM57.8138 78.2096L60.8937 79.8171C61.4558 78.7402 61.4145 77.4478 60.7848 76.4089C60.1552 75.37 59.0286 74.7355 57.8138 74.7355V78.2096ZM57.1121 79.5541L54.0322 77.9466C53.4701 79.0236 53.5114 80.3159 54.141 81.3548C54.7707 82.3937 55.8973 83.0283 57.1121 83.0283V79.5541ZM59.0675 79.5541L62.5165 79.9715C62.6359 78.9846 62.3269 77.9938 61.6675 77.2498C61.0081 76.5058 60.0616 76.08 59.0675 76.08V79.5541ZM58.5961 83.4498L55.1471 83.0325C55.0277 84.0194 55.3368 85.0102 55.9961 85.7541C56.6555 86.4981 57.602 86.924 58.5961 86.924V83.4498ZM59.54 83.4498V86.924C61.2973 86.924 62.7779 85.6117 62.989 83.8672L59.54 83.4498ZM60.1615 78.3131V74.839C58.4042 74.839 56.9236 76.1512 56.7125 77.8958L60.1615 78.3131ZM65.0503 78.3131L68.4992 78.7304C68.6187 77.7435 68.3096 76.7527 67.6502 76.0088C66.9908 75.2648 66.0444 74.839 65.0503 74.839V78.3131ZM64.4287 83.4498L60.9797 83.0325C60.8603 84.0194 61.1694 85.0102 61.8288 85.7542C62.4881 86.4981 63.4346 86.924 64.4287 86.924V83.4498ZM65.4063 83.4498V86.924C67.1636 86.924 68.6442 85.6118 68.8553 83.8672L65.4063 83.4498ZM65.8778 79.5541V76.08C64.1205 76.08 62.6399 77.3922 62.4288 79.1367L65.8778 79.5541ZM68.0017 79.5541L71.4507 79.9714C71.5701 78.9845 71.2611 77.9937 70.6017 77.2498C69.9423 76.5058 68.9958 76.08 68.0017 76.08V79.5541ZM67.1759 86.3801L63.7269 85.9629C63.5174 87.6949 64.6248 89.3137 66.3151 89.7459C68.0053 90.1782 69.754 89.2899 70.4017 87.67L67.1759 86.3801ZM70.4152 78.2787V74.8045C68.9945 74.8045 67.7169 75.6696 67.1894 76.9889L70.4152 78.2787ZM75.1689 78.2787L78.4032 79.5472C78.8226 78.4778 78.6863 77.2703 78.0392 76.3213C77.392 75.3723 76.3176 74.8045 75.1689 74.8045V78.2787ZM73.5599 82.3811L70.3256 81.1127C69.9062 82.182 70.0425 83.3895 70.6897 84.3385C71.3369 85.2875 72.4113 85.8553 73.5599 85.8553V82.3811ZM78.8194 82.3811L82.2684 82.7983C82.3878 81.8114 82.0787 80.8207 81.4193 80.0768C80.7599 79.3328 79.8135 78.907 78.8194 78.907V82.3811ZM78.4149 85.7251V89.1993C80.1723 89.1993 81.6529 87.8869 81.864 86.1423L78.4149 85.7251ZM78.0103 85.7251V82.251C76.6001 82.251 75.3298 83.1034 74.7953 84.4084L78.0103 85.7251ZM72.8425 98.3429L69.6276 97.0262C69.324 97.7673 69.2859 98.5905 69.5196 99.3566L72.8425 98.3429ZM76.0291 108.789V112.263C77.1301 112.263 78.166 111.741 78.8212 110.856C79.4764 109.971 79.6733 108.828 79.3521 107.775L76.0291 108.789ZM87.3594 107.099V110.574C88.5443 110.574 89.6474 109.97 90.2859 108.972L87.3594 107.099ZM79.7401 107.099L76.8112 105.231C76.1289 106.3 76.0838 107.657 76.6937 108.769C77.3036 109.882 78.4714 110.574 79.7401 110.574V107.099ZM99.292 88.4487L102.218 90.321C102.903 89.2516 102.949 87.8942 102.34 86.7806C101.73 85.667 100.562 84.9745 99.292 84.9745V88.4487ZM91.6386 88.4487V84.9745C90.4522 84.9745 89.3478 85.58 88.7097 86.5802L91.6386 88.4487ZM107.837 86.9317V83.4576C106.079 83.4576 104.599 84.7698 104.388 86.5145L107.837 86.9317ZM105.205 108.685V112.159C106.962 112.159 108.443 110.847 108.654 109.102L105.205 108.685ZM112.152 86.9317V90.4059C113.91 90.4059 115.39 89.0935 115.601 87.3488L112.152 86.9317ZM112.59 83.312L116.039 83.7291C116.159 82.7422 115.849 81.7515 115.19 81.0076C114.531 80.2636 113.584 79.8378 112.59 79.8378V83.312ZM108.275 83.312L104.826 82.8947C104.706 83.8816 105.015 84.8724 105.675 85.6163C106.334 86.3603 107.281 86.7861 108.275 86.7861V83.312ZM108.871 78.382L112.32 78.7992C112.439 77.8123 112.13 76.8216 111.471 76.0776C110.812 75.3337 109.865 74.9078 108.871 74.9078V78.382ZM102.297 78.382V74.9078C100.539 74.9078 99.0588 76.2201 98.8477 77.9647L102.297 78.382ZM101.692 83.3808V86.855C103.449 86.855 104.93 85.5427 105.141 83.7981L101.692 83.3808ZM82.5419 83.3808V79.9067C80.7845 79.9067 79.3038 81.2191 79.0929 82.9638L82.5419 83.3808ZM82.1125 86.9317L78.6635 86.5147C78.5442 87.5015 78.8533 88.4922 79.5127 89.2361C80.1721 89.98 81.1185 90.4059 82.1125 90.4059V86.9317ZM101.262 86.9317L104.711 87.349C104.831 86.3621 104.522 85.3713 103.862 84.6274C103.203 83.8834 102.256 83.4576 101.262 83.4576V86.9317ZM99.0477 105.238V108.712C100.805 108.712 102.286 107.4 102.497 105.655L99.0477 105.238ZM91.8665 105.238V101.764C90.7631 101.764 89.7253 102.288 89.0704 103.176C88.4156 104.064 88.2215 105.21 88.5476 106.264L91.8665 105.238ZM92.9329 108.685L89.6139 109.712C90.0641 111.167 91.4097 112.159 92.9329 112.159V108.685ZM175.92 96.2361L174.586 107.268L181.484 108.102L182.818 97.0706L175.92 96.2361ZM181.223 93.1792H179.369V100.127H181.223V93.1792ZM178.171 92.9609L177.774 96.236L184.672 97.0707L185.069 93.7956L178.171 92.9609ZM179.766 96.8524H181.62V89.9041H179.766V96.8524ZM176.554 90.9961L176.316 92.9612L183.215 93.7952L183.452 91.8302L176.554 90.9961ZM174.002 94.8873H180.003V87.939H174.002V94.8873ZM177.213 93.7953L177.451 91.8302L170.553 90.9961L170.315 92.9612L177.213 93.7953ZM163.582 96.8524H173.764V89.9041H163.582V96.8524ZM166.635 97.0707L167.031 93.7955L160.133 92.9609L159.737 96.236L166.635 97.0707ZM173.368 93.1792H163.186V100.127H173.368V93.1792ZM175.883 104.793L176.817 97.0706L169.919 96.2361L168.985 103.958L175.883 104.793ZM171.22 107.85H172.434V100.901H171.22V107.85ZM166.661 98.4948L167.798 104.976L174.642 103.775L173.504 97.2939L166.661 98.4948ZM163.845 101.368H170.082V94.4202H163.845V101.368ZM168.691 104.947L167.261 97.2591L160.43 98.5296L161.859 106.217L168.691 104.947ZM169.826 102.108H165.275V109.056H169.826V102.108ZM173.835 106.555L173.112 104.452L166.541 106.712L167.265 108.815L173.835 106.555ZM178.035 104.211H170.55V111.159H178.035V104.211ZM167.402 90.7273L167.79 87.5213L160.892 86.6867L160.504 89.8927L167.402 90.7273ZM181.957 86.8359H163.953V93.7842H181.957V86.8359ZM178.896 86.6867L178.508 89.8927L185.406 90.7273L185.794 87.5213L178.896 86.6867ZM176.243 90.5781H182.345V83.6298H176.243V90.5781ZM173.236 83.0321L172.794 86.6865L179.691 87.5214L180.134 83.8671L173.236 83.0321ZM181.742 79.9755H176.685V86.9237H181.742V79.9755ZM178.668 79.9296L178.293 83.0324L185.191 83.8668L185.566 80.764L178.668 79.9296ZM177.06 83.8209H182.117V76.8726H177.06V83.8209ZM173.974 76.9305L173.611 79.9296L180.509 80.764L180.872 77.7649L173.974 76.9305ZM171.287 80.8218H177.423V73.8735H171.287V80.8218ZM174.373 80.7642L174.736 77.7651L167.838 76.9302L167.475 79.9294L174.373 80.7642ZM166.17 83.8209H170.924V76.8726H166.17V83.8209ZM169.244 83.8668L169.619 80.764L162.721 79.9296L162.346 83.0324L169.244 83.8668ZM170.549 79.9755H165.795V86.9237H170.549V79.9755ZM173.556 87.5212L173.998 83.8669L167.1 83.0323L166.658 86.6867L173.556 87.5212ZM164.341 90.5781H170.107V83.6298H164.341V90.5781ZM158.113 90.8005H156.697V97.7488H158.113V90.8005ZM160.436 104L161.562 94.6919L154.664 93.8573L153.538 103.165L160.436 104ZM155.571 107.057H156.987V100.108H155.571V107.057ZM153.248 93.8573L152.122 103.165L159.02 104L160.146 94.6919L153.248 93.8573ZM159.627 78.2862H158.211V85.2345H159.627V78.2862ZM161.963 91.3823L163.076 82.1775L156.178 81.3431L155.064 90.5479L161.963 91.3823ZM157.098 94.4392H158.513V87.4909H157.098V94.4392ZM154.762 81.343L153.649 90.5478L160.547 91.3824L161.66 82.1776L154.762 81.343ZM153.908 107.241L157.344 78.8336L150.446 77.9991L147.01 106.406L153.908 107.241ZM161.248 103.349H150.459V110.297H161.248V103.349ZM161.235 77.9991L157.799 106.406L164.697 107.241L168.133 78.8336L161.235 77.9991ZM153.895 81.8905H164.684V74.9422H153.895V81.8905ZM129.619 77.3785L125.998 107.303L132.896 108.137L136.517 78.213L129.619 77.3785ZM149.082 74.3216H133.068V81.2699H149.082V74.3216ZM150.629 93.9334L152.531 78.213L145.633 77.3785L143.731 93.0989L150.629 93.9334ZM136.897 96.9903H147.18V90.042H136.897V96.9903ZM140.217 95.0024L140.346 93.9337L133.448 93.0986L133.319 94.1673L140.217 95.0024ZM141.825 91.1107H136.768V98.059H141.825V91.1107ZM145.948 95.7294L145.086 93.385L138.565 95.7847L139.428 98.129L145.948 95.7294ZM140.478 93.1861L139.478 95.5995L145.898 98.2588L146.897 95.8455L140.478 93.1861ZM148.104 91.0417H143.688V97.9899H148.104V91.0417ZM149.445 101.038L151.372 95.6948L144.836 93.3368L142.909 98.6805L149.445 101.038ZM143.749 103.334H146.177V96.3853H143.749V103.334ZM149.844 106.545L147.018 98.6843L140.48 101.035L143.305 108.895L149.844 106.545ZM140.573 111.194H146.574V104.246H140.573V111.194ZM133.277 97.5386L137.299 108.881L143.848 106.559L139.825 95.2162L133.277 97.5386ZM139.024 104.862L140 96.7946L133.102 95.9602L132.126 104.027L139.024 104.862ZM138.609 100.97H135.575V107.919H138.609V100.97ZM139.837 109.402L141.649 106.127L135.57 102.763L133.757 106.038L139.837 109.402ZM129.447 111.194H136.797V104.246H129.447V111.194ZM138.411 84.4758H143.03V77.5275H138.411V84.4758ZM141.493 84.4528L141.86 81.4188L134.962 80.5845L134.595 83.6184L141.493 84.4528ZM142.663 80.5615H138.044V87.5098H142.663V80.5615ZM139.581 80.5845L139.214 83.6184L146.112 84.4528L146.479 81.4188L139.581 80.5845ZM137.656 90.7158H142.275V83.7675H137.656V90.7158ZM140.738 90.6929L141.105 87.6591L134.207 86.8243L133.84 89.858L140.738 90.6929ZM141.908 86.8013H137.289V93.7496H141.908V86.8013ZM138.826 86.8245L138.459 89.8583L145.357 90.6927L145.724 87.6589L138.826 86.8245ZM116.874 77.3785L113.254 107.303L120.152 108.137L123.772 78.213L116.874 77.3785ZM131.82 74.3216H120.323V81.2699H131.82V74.3216ZM133.947 89.1415L135.269 78.213L128.371 77.3786L127.049 88.307L133.947 89.1415ZM129.975 93.3744L132.523 91.5474L128.473 85.9011L125.926 87.7281L129.975 93.3744ZM132.286 89.6389L130.173 87.8805L125.729 93.2219L127.842 94.9803L132.286 89.6389ZM132.124 104.207L133.513 92.7268L126.615 91.8923L125.226 103.372L132.124 104.207ZM122.337 107.264H128.675V100.315H122.337V107.264ZM125.31 108.137L125.786 104.207L118.888 103.372L118.412 107.302L125.31 108.137ZM116.703 111.194H121.861V104.246H116.703V111.194ZM125.09 84.5104H126.405V77.5621H125.09V84.5104ZM127.55 89.624L128.539 81.4535L121.641 80.619L120.652 88.7895L127.55 89.624ZM125.416 85.7326H124.101V92.6809H125.416V85.7326ZM122.956 80.6189L121.967 88.7894L128.865 89.6241L129.854 81.4536L122.956 80.6189ZM123.696 96.0251H125.011V89.0768H123.696V96.0251ZM126.182 100.932L127.145 92.9682L120.247 92.1337L119.284 100.097L126.182 100.932ZM124.048 97.0403H122.733V103.989H124.048V97.0403ZM121.562 92.1336L120.599 100.097L127.497 100.932L128.46 92.9683L121.562 92.1336ZM73.7679 91.304L75.4989 87.029L69.0586 84.4212L67.3276 88.6962L73.7679 91.304ZM67.0752 93.4742H70.5477V86.5259H67.0752V93.4742ZM70.4158 91.3136L70.5242 90.4174L63.6262 89.5827L63.5178 90.4789L70.4158 91.3136ZM70.608 87.4221H66.9668V94.3704H70.608V87.4221ZM74.0138 89.8822L73.655 89.2272L67.5611 92.5653L67.9199 93.2203L74.0138 89.8822ZM69.9432 84.4869L67.7208 90.3131L74.2129 92.7894L76.4352 86.9633L69.9432 84.4869ZM72.2788 89.1993H73.1892V82.251H72.2788V89.1993ZM69.6134 96.5538L69.9554 93.7267L63.0574 92.8921L62.7154 95.7191L69.6134 96.5538ZM63.2311 99.6106H66.1644V92.6623H63.2311V99.6106ZM66.3883 98.9667L66.6801 96.5535L59.7821 95.7194L59.4903 98.1325L66.3883 98.9667ZM65.2992 95.0755H62.9393V102.024H65.2992V95.0755ZM68.3644 102.139L68.7482 98.9669L61.8502 98.1323L61.4664 101.304L68.3644 102.139ZM62.5555 105.195H64.9154V98.2471H62.5555V105.195ZM65.7206 104.483L66.0045 102.139L59.1066 101.304L58.8227 103.648L65.7206 104.483ZM65.0236 100.425L62.0694 100.597L62.474 107.534L65.4282 107.362L65.0236 100.425ZM68.3454 107.034L68.6749 104.311L61.7769 103.476L61.4474 106.2L68.3454 107.034ZM64.898 97.35L61.6759 105.314L68.1169 107.92L71.3391 99.9561L64.898 97.35ZM63.1803 94.3129L64.7925 99.6565L71.4446 97.6496L69.8325 92.306L63.1803 94.3129ZM58.8889 89.8144L59.6415 88.3321L53.4459 85.1867L52.6934 86.669L58.8889 89.8144ZM66.4116 84.7676H55.7911V91.7159H66.4116V84.7676ZM63.763 85.4862L63.1791 86.9686L69.644 89.5149L70.2279 88.0325L63.763 85.4862ZM56.5437 90.2335H66.9954V83.2852H56.5437V90.2335ZM57.2873 86.9381L59.864 81.8016L53.6534 78.686L51.0766 83.8225L57.2873 86.9381ZM56.1374 81.9061H54.1819V88.8544H56.1374V81.9061ZM53.3097 79.8266L52.6884 84.9631L59.5864 85.7975L60.2077 80.661L53.3097 79.8266ZM66.7553 106.463L67.8299 109.842L74.4513 107.736L73.3768 104.357L66.7553 106.463ZM71.8934 110.108L73.28 106.729L66.8521 104.091L65.4654 107.47L71.8934 110.108ZM64.0603 112.263H68.6794V105.314H64.0603V112.263ZM61.4562 105.864L60.8133 107.553L67.3073 110.024L67.9501 108.335L61.4562 105.864ZM53.4043 111.291L64.9211 110.567L64.4852 103.632L52.9684 104.356L53.4043 111.291ZM50.1211 104.234L49.7373 107.406L56.6353 108.241L57.019 105.069L50.1211 104.234ZM56.6475 100.978L53.3523 101.184L53.7878 108.119L57.083 107.912L56.6475 100.978ZM53.7458 101.304L53.4163 104.028L60.3143 104.862L60.6438 102.139L53.7458 101.304ZM54.7336 105.195H57.1948V98.2471H54.7336V105.195ZM51.6683 98.1323L51.2846 101.304L58.1826 102.139L58.5663 98.9669L51.6683 98.1323ZM57.5785 95.0755H55.1173V102.024H57.5785V95.0755ZM54.4215 95.7191L54.1295 98.1322L61.0275 98.967L61.3195 96.5538L54.4215 95.7191ZM54.8698 99.6106H57.8705V92.6623H54.8698V99.6106ZM51.8001 92.5822L51.4208 95.7194L58.3189 96.5535L58.6982 93.4162L51.8001 92.5822ZM66.3752 89.5251H55.2492V96.4734H66.3752V89.5251ZM62.6273 92.472L63.0252 93.9199L69.7251 92.0785L69.3271 90.6306L62.6273 92.472ZM55.121 95.0254H65.9772V88.0771H55.121V95.0254ZM51.9848 88.5484L51.672 91.1341L58.5701 91.9685L58.8828 89.3828L51.9848 88.5484ZM56.4069 94.7662L58.538 90.5256L52.3296 87.4056L50.1985 91.6461L56.4069 94.7662ZM54.3142 89.732H53.3027V96.6803H54.3142V89.732ZM55.8779 109.206L57.7632 93.6234L50.8653 92.7889L48.9799 108.371L55.8779 109.206ZM46.7311 112.263H52.4289V105.314H46.7311V112.263ZM45.0129 94.0643L43.2821 108.371L50.1801 109.206L51.9109 94.8988L45.0129 94.0643ZM46.8435 97.9557H48.4619V91.0074H46.8435V97.9557ZM47.6284 84.8691L43.7152 92.9705L49.9718 95.9926L53.885 87.8912L47.6284 84.8691ZM47.7902 89.8543H50.7567V82.906H47.7902V89.8543ZM48.968 76.6039L44.7094 84.7744L50.8709 87.9859L55.1296 79.8154L48.968 76.6039ZM57.8138 74.7355H52.0488V81.6838H57.8138V74.7355ZM60.192 81.1616L60.8937 79.8171L54.7339 76.6022L54.0322 77.9466L60.192 81.1616ZM59.0675 76.08H57.1121V83.0283H59.0675V76.08ZM62.0451 83.8672L62.5165 79.9715L55.6185 79.1367L55.1471 83.0325L62.0451 83.8672ZM59.54 79.9757H58.5961V86.924H59.54V79.9757ZM56.7125 77.8958L56.091 83.0325L62.989 83.8672L63.6105 78.7304L56.7125 77.8958ZM65.0503 74.839H60.1615V81.7873H65.0503V74.839ZM67.8777 83.8672L68.4992 78.7304L61.6013 77.8958L60.9797 83.0325L67.8777 83.8672ZM65.4063 79.9757H64.4287V86.924H65.4063V79.9757ZM62.4288 79.1367L61.9574 83.0325L68.8553 83.8672L69.3268 79.9715L62.4288 79.1367ZM68.0017 76.08H65.8778V83.0283H68.0017V76.08ZM70.6249 86.7974L71.4507 79.9714L64.5527 79.1368L63.7269 85.9629L70.6249 86.7974ZM67.1894 76.9889L63.9501 85.0903L70.4017 87.67L73.6411 79.5685L67.1894 76.9889ZM75.1689 74.8045H70.4152V81.7528H75.1689V74.8045ZM76.7942 83.6496L78.4032 79.5472L71.9346 77.0102L70.3256 81.1127L76.7942 83.6496ZM78.8194 78.907H73.5599V85.8553H78.8194V78.907ZM81.864 86.1423L82.2684 82.7983L75.3704 81.964L74.9659 85.308L81.864 86.1423ZM78.0103 89.1993H78.4149V82.251H78.0103V89.1993ZM76.0575 99.6596L81.2252 87.0418L74.7953 84.4084L69.6276 97.0262L76.0575 99.6596ZM79.3521 107.775L76.1655 97.3292L69.5196 99.3566L72.7061 109.802L79.3521 107.775ZM71.1406 112.263H76.0291V105.314H71.1406V112.263ZM87.3594 103.625H79.7401V110.574H87.3594V103.625ZM96.3656 86.5764L84.433 105.227L90.2859 108.972L102.218 90.321L96.3656 86.5764ZM91.6386 91.9228H99.292V84.9745H91.6386V91.9228ZM82.669 108.968L94.5674 90.3172L88.7097 86.5802L76.8112 105.231L82.669 108.968ZM104.388 86.5145L101.756 108.268L108.654 109.102L111.286 87.3489L104.388 86.5145ZM112.152 83.4576H107.837V90.4059H112.152V83.4576ZM109.141 82.8949L108.703 86.5146L115.601 87.3488L116.039 83.7291L109.141 82.8949ZM108.275 86.7861H112.59V79.8378H108.275V86.7861ZM105.422 77.9647L104.826 82.8947L111.724 83.7292L112.32 78.7992L105.422 77.9647ZM102.297 81.8561H108.871V74.9078H102.297V81.8561ZM105.141 83.7981L105.746 78.7992L98.8477 77.9647L98.2429 82.9635L105.141 83.7981ZM82.5419 86.855H101.692V79.9067H82.5419V86.855ZM85.5616 87.3487L85.9909 83.7978L79.0929 82.9638L78.6635 86.5147L85.5616 87.3487ZM101.262 83.4576H82.1125V90.4059H101.262V83.4576ZM102.497 105.655L104.711 87.349L97.8134 86.5145L95.5987 104.821L102.497 105.655ZM91.8665 108.712H99.0477V101.764H91.8665V108.712ZM96.2519 107.659L95.1855 104.211L88.5476 106.264L89.6139 109.712L96.2519 107.659ZM105.205 105.211H92.9329V112.159H105.205V105.211Z" fill="#2B3340"/>
<rect x="59.3747" y="81.0508" width="183.759" height="27.8114" fill="#2B3340"/>
<path fill-rule="evenodd" clip-rule="evenodd" d="M222.499 84.3203L222.179 87.5922H242.813L243.133 84.3203H222.499ZM221.175 92.5002L220.859 95.1369H225.235L224.375 102.316L218.955 107.224H225.203L228.968 103.882L230.017 95.1369H233.381L231.932 107.224H240.862L242.292 104.587H237.156L238.289 95.1369H242.817L243.133 92.5002H221.175Z" fill="#2B3340"/>
<path d="M222.499 84.3203V80.8462C220.712 80.8462 219.216 82.2024 219.042 83.9813L222.499 84.3203ZM222.179 87.5922L218.721 87.2533C218.625 88.229 218.946 89.1997 219.605 89.9259C220.263 90.6522 221.198 91.0664 222.179 91.0664V87.5922ZM242.813 87.5922V91.0664C244.6 91.0664 246.096 89.71 246.27 87.9311L242.813 87.5922ZM243.133 84.3203L246.591 84.6591C246.687 83.6835 246.366 82.7128 245.707 81.9866C245.049 81.2604 244.114 80.8462 243.133 80.8462V84.3203ZM221.175 92.5002V89.026C219.417 89.026 217.935 90.3403 217.726 92.0865L221.175 92.5002ZM220.859 95.1369L217.41 94.7233C217.291 95.7097 217.601 96.6995 218.26 97.4426C218.92 98.1858 219.866 98.6111 220.859 98.6111V95.1369ZM225.235 95.1369L228.685 95.5504C228.803 94.564 228.493 93.5742 227.834 92.8311C227.175 92.0881 226.229 91.6628 225.235 91.6628V95.1369ZM224.375 102.316L226.707 104.891C227.328 104.329 227.725 103.561 227.824 102.729L224.375 102.316ZM218.955 107.224L216.623 104.649C215.558 105.613 215.196 107.133 215.713 108.473C216.23 109.814 217.518 110.698 218.955 110.698V107.224ZM225.203 107.224V110.698C226.053 110.698 226.874 110.386 227.509 109.822L225.203 107.224ZM228.968 103.882L231.275 106.481C231.91 105.917 232.317 105.139 232.418 104.296L228.968 103.882ZM230.017 95.1369V91.6628C228.258 91.6628 226.777 92.9771 226.567 94.7234L230.017 95.1369ZM233.381 95.1369L236.831 95.5505C236.949 94.5641 236.639 93.5743 235.98 92.8312C235.321 92.0881 234.375 91.6628 233.381 91.6628V95.1369ZM231.932 107.224L228.483 106.81C228.365 107.797 228.674 108.787 229.334 109.53C229.993 110.273 230.939 110.698 231.932 110.698V107.224ZM240.862 107.224V110.698C242.137 110.698 243.309 110 243.917 108.879L240.862 107.224ZM242.292 104.587L245.346 106.243C245.929 105.166 245.903 103.862 245.277 102.81C244.65 101.758 243.516 101.113 242.292 101.113V104.587ZM237.156 104.587L233.707 104.174C233.589 105.16 233.898 106.15 234.558 106.893C235.217 107.636 236.163 108.061 237.156 108.061V104.587ZM238.289 95.1369V91.6628C236.53 91.6628 235.049 92.9771 234.84 94.7234L238.289 95.1369ZM242.817 95.1369V98.6111C244.576 98.6111 246.057 97.2968 246.267 95.5506L242.817 95.1369ZM243.133 92.5002L246.583 92.9138C246.701 91.9274 246.392 90.9376 245.732 90.1944C245.073 89.4513 244.127 89.026 243.133 89.026V92.5002ZM219.042 83.9813L218.721 87.2533L225.636 87.9312L225.957 84.6593L219.042 83.9813ZM222.179 91.0664H242.813V84.1181H222.179V91.0664ZM246.27 87.9311L246.591 84.6591L239.676 83.9815L239.355 87.2534L246.27 87.9311ZM243.133 80.8462H222.499V87.7945H243.133V80.8462ZM217.726 92.0865L217.41 94.7233L224.309 95.5506L224.625 92.9138L217.726 92.0865ZM220.859 98.6111H225.235V91.6628H220.859V98.6111ZM221.786 94.7235L220.925 101.902L227.824 102.729L228.685 95.5504L221.786 94.7235ZM222.043 99.7406L216.623 104.649L221.287 109.799L226.707 104.891L222.043 99.7406ZM218.955 110.698H225.203V103.75H218.955V110.698ZM227.509 109.822L231.275 106.481L226.662 101.284L222.897 104.625L227.509 109.822ZM232.418 104.296L233.466 95.5504L226.567 94.7234L225.519 103.469L232.418 104.296ZM230.017 98.6111H233.381V91.6628H230.017V98.6111ZM229.932 94.7234L228.483 106.81L235.382 107.637L236.831 95.5505L229.932 94.7234ZM231.932 110.698H240.862V103.75H231.932V110.698ZM243.917 108.879L245.346 106.243L239.237 102.932L237.808 105.568L243.917 108.879ZM242.292 101.113H237.156V108.061H242.292V101.113ZM240.606 105.001L241.739 95.5504L234.84 94.7234L233.707 104.174L240.606 105.001ZM238.289 98.6111H242.817V91.6628H238.289V98.6111ZM246.267 95.5506L246.583 92.9138L239.684 92.0865L239.368 94.7233L246.267 95.5506ZM243.133 89.026H221.175V95.9743H243.133V89.026Z" fill="#2B3340"/>
<path fill-rule="evenodd" clip-rule="evenodd" d="M205.795 92.9636C205.336 96.6147 204.508 98.2773 203.895 99.029L203.877 99.0508C203.428 99.6188 202.188 99.9442 200.475 99.9442C199.035 99.9442 197.972 99.7194 197.316 99.2751C197.204 99.1903 196.938 98.9143 196.685 98.1094C196.471 97.394 196.295 95.9208 196.666 92.9636L197.684 84.8622C198.176 80.9472 198.812 79.533 199.154 79.0286C199.745 78.1447 201.021 77.6967 202.946 77.6967C204.265 77.6967 205.97 77.8935 206.613 78.8427C206.856 79.1939 207.363 80.4835 206.813 84.8622L205.795 92.9636ZM212.801 70.833C210.986 70.0132 208.976 69.5977 206.826 69.5977H201.506C200.016 69.5977 198.479 69.8137 196.932 70.2414C194.51 70.9227 192.543 72.0145 191.085 73.4859C189.2 75.3868 187.954 78.9356 187.276 84.3345L185.976 94.6789C185.59 97.7549 185.635 100.372 186.107 102.441C186.455 104.06 187.366 105.456 188.827 106.6C190.584 107.944 193.181 108.598 196.768 108.598H201.764C206.065 108.598 209.184 107.657 211.298 105.723C213.858 103.386 215.414 99.773 216.054 94.6789L217.354 84.3345C217.934 79.7179 217.82 76.592 217 74.7663C216.204 73.0396 214.788 71.7151 212.801 70.833Z" fill="#2B3340"/>
<path d="M205.795 92.9636L202.347 92.5304L202.347 92.5304L205.795 92.9636ZM203.895 99.029L201.202 96.8319L201.198 96.8375L201.193 96.8432L203.895 99.029ZM203.877 99.0508L201.176 96.8649L201.164 96.8798L201.152 96.8949L203.877 99.0508ZM197.316 99.2751L195.21 102.04L195.288 102.099L195.368 102.153L197.316 99.2751ZM196.685 98.1094L193.355 99.1032L193.362 99.1292L193.371 99.1551L196.685 98.1094ZM196.666 92.9636L200.114 93.3968L200.114 93.3967L196.666 92.9636ZM197.684 84.8622L194.236 84.4289L194.236 84.4291L197.684 84.8622ZM199.154 79.0286L202.031 80.9777L202.037 80.9691L202.043 80.9603L199.154 79.0286ZM206.613 78.8427L203.736 80.7914L203.746 80.8065L203.756 80.8215L206.613 78.8427ZM206.813 84.8622L210.261 85.2955L210.261 85.2954L206.813 84.8622ZM212.801 70.833L211.37 73.9998L211.381 74.0046L211.391 74.0092L212.801 70.833ZM196.932 70.2414L196.006 66.8921L195.999 66.8941L195.991 66.8962L196.932 70.2414ZM191.085 73.4859L193.553 75.9328L193.554 75.9313L191.085 73.4859ZM187.276 84.3345L183.828 83.901L183.828 83.9014L187.276 84.3345ZM185.976 94.6789L189.424 95.1122L189.424 95.1119L185.976 94.6789ZM186.107 102.441L189.504 101.711L189.5 101.689L189.495 101.668L186.107 102.441ZM188.827 106.6L186.685 109.336L186.7 109.348L186.715 109.359L188.827 106.6ZM211.298 105.723L208.955 103.157L208.952 103.159L211.298 105.723ZM216.054 94.6789L219.502 95.1122L219.502 95.112L216.054 94.6789ZM217.354 84.3345L220.801 84.7676L220.801 84.7676L217.354 84.3345ZM217 74.7663L220.17 73.3427L220.163 73.327L220.156 73.3114L217 74.7663ZM202.347 92.5304C202.141 94.173 201.865 95.2489 201.626 95.9269C201.387 96.6049 201.202 96.8328 201.202 96.8319L206.587 101.226C207.789 99.7528 208.746 97.3471 209.243 93.3967L202.347 92.5304ZM201.193 96.8432L201.176 96.8649L206.579 101.237L206.596 101.215L201.193 96.8432ZM201.152 96.8949C201.414 96.563 201.672 96.4117 201.757 96.3664C201.849 96.3172 201.867 96.3234 201.767 96.3495C201.561 96.4036 201.138 96.4692 200.475 96.4692V103.419C201.525 103.419 202.578 103.322 203.532 103.072C204.374 102.851 205.68 102.373 206.603 101.207L201.152 96.8949ZM200.475 96.4692C199.923 96.4692 199.549 96.425 199.321 96.3766C199.082 96.326 199.11 96.2939 199.263 96.3972L195.368 102.153C196.904 103.192 198.833 103.419 200.475 103.419V96.4692ZM199.421 96.5103C200.079 97.0115 200.127 97.4696 199.998 97.0638L193.371 99.1551C193.75 100.359 194.329 101.369 195.21 102.04L199.421 96.5103ZM200.014 97.1156C200.016 97.1214 199.948 96.8884 199.93 96.2752C199.912 95.6678 199.945 94.7442 200.114 93.3968L193.218 92.5303C192.822 95.6851 192.94 97.7148 193.355 99.1032L200.014 97.1156ZM200.114 93.3967L201.132 85.2954L194.236 84.4291L193.218 92.5305L200.114 93.3967ZM201.132 85.2956C201.609 81.4989 202.17 80.7731 202.031 80.9777L196.277 77.0794C195.455 78.2929 194.743 80.3955 194.236 84.4289L201.132 85.2956ZM202.043 80.9603C201.82 81.2936 201.586 81.3505 201.701 81.3099C201.843 81.2601 202.222 81.1717 202.946 81.1717V74.2217C200.776 74.2217 197.883 74.6788 196.266 77.0968L202.043 80.9603ZM202.946 81.1717C203.193 81.1717 203.436 81.1811 203.661 81.2021C203.89 81.2236 204.066 81.2541 204.19 81.285C204.322 81.3179 204.327 81.3346 204.254 81.294C204.177 81.2504 203.948 81.1049 203.736 80.7914L209.49 76.8939C208.449 75.3574 206.84 74.7835 205.876 74.5425C204.812 74.2767 203.738 74.2217 202.946 74.2217V81.1717ZM203.756 80.8215C203.408 80.3194 203.493 80.0703 203.551 80.6764C203.607 81.2472 203.621 82.3892 203.365 84.4291L210.261 85.2954C210.554 82.9566 210.591 81.2644 210.469 80.0079C210.351 78.7867 210.061 77.7172 209.469 76.8638L203.756 80.8215ZM203.365 84.429L202.347 92.5304L209.243 93.3968L210.261 85.2955L203.365 84.429ZM214.232 67.6662C211.932 66.6274 209.43 66.1227 206.826 66.1227V73.0727C208.523 73.0727 210.04 73.399 211.37 73.9998L214.232 67.6662ZM206.826 66.1227H201.506V73.0727H206.826V66.1227ZM201.506 66.1227C199.68 66.1227 197.832 66.3872 196.006 66.8921L197.858 73.5908C199.126 73.2402 200.351 73.0727 201.506 73.0727V66.1227ZM195.991 66.8962C193.114 67.7055 190.579 69.0592 188.616 71.0404L193.554 75.9313C194.507 74.9697 195.906 74.1399 197.873 73.5866L195.991 66.8962ZM188.618 71.0389C185.863 73.8168 184.52 78.3957 183.828 83.901L190.724 84.7679C191.389 79.4755 192.537 76.9567 193.553 75.9328L188.618 71.0389ZM183.828 83.9014L182.529 94.2458L189.424 95.1119L190.724 84.7675L183.828 83.9014ZM182.529 94.2455C182.112 97.5572 182.126 100.613 182.719 103.214L189.495 101.668C189.144 100.131 189.067 97.9526 189.424 95.1122L182.529 94.2455ZM182.709 103.172C183.248 105.678 184.664 107.753 186.685 109.336L190.97 103.864C190.069 103.159 189.661 102.441 189.504 101.711L182.709 103.172ZM186.715 109.359C189.353 111.378 192.856 112.073 196.768 112.073V105.123C193.507 105.123 191.816 104.511 190.94 103.84L186.715 109.359ZM196.768 112.073H201.764V105.123H196.768V112.073ZM201.764 112.073C206.509 112.073 210.633 111.041 213.643 108.287L208.952 103.159C207.735 104.273 205.62 105.123 201.764 105.123V112.073ZM213.641 108.289C217.046 105.181 218.807 100.643 219.502 95.1122L212.606 94.2455C212.021 98.9029 210.67 101.591 208.955 103.157L213.641 108.289ZM219.502 95.112L220.801 84.7676L213.906 83.9013L212.606 94.2457L219.502 95.112ZM220.801 84.7676C221.105 82.3526 221.242 80.2158 221.174 78.3759C221.108 76.5707 220.838 74.8308 220.17 73.3427L213.83 76.1899C213.981 76.5275 214.179 77.2634 214.229 78.6317C214.278 79.9653 214.182 81.6998 213.906 83.9013L220.801 84.7676ZM220.156 73.3114C218.955 70.7063 216.849 68.8281 214.211 67.6568L211.391 74.0092C212.727 74.6021 213.453 75.3729 213.844 76.2212L220.156 73.3114Z" fill="#2B3340"/>
<path fill-rule="evenodd" clip-rule="evenodd" d="M178.035 107.685L179.369 96.6533H181.223L181.62 93.3782H179.766L180.003 91.4132H174.002L173.764 93.3782H163.582L163.186 96.6533H173.368L172.434 104.376H171.22L170.082 97.8943H163.845L165.275 105.582H169.826L170.55 107.685H178.035ZM164.341 87.104L163.953 90.31H181.957L182.345 87.104H176.243L176.685 83.4496H181.742L182.117 80.3468H177.06L177.423 77.3477H171.287L170.924 80.3468H166.17L165.795 83.4496H170.549L170.107 87.104H164.341ZM156.697 94.2746H158.113L156.987 103.583H155.571L156.697 94.2746ZM158.211 81.7603H159.627L158.513 90.9651H157.098L158.211 81.7603ZM153.895 78.4163L150.459 106.823H161.248L164.684 78.4163H153.895ZM129.447 107.72L133.068 77.7958H149.082L147.18 93.5162H136.897L136.768 94.5848H141.825L142.688 96.9292L143.688 94.5158H148.104L146.177 99.8595H143.749L146.574 107.72H140.573L136.551 96.3774L135.575 104.445H138.609L136.797 107.72H129.447ZM143.03 81.0016H138.411L138.044 84.0356H142.663L143.03 81.0016ZM142.275 87.2417H137.656L137.289 90.2755H141.908L142.275 87.2417ZM116.703 107.72L120.323 77.7958H131.82L130.498 88.7243L127.951 90.5512L130.064 92.3096L128.675 103.79H122.337L121.861 107.72H116.703ZM126.405 81.0363H125.09L124.101 89.2068H125.416L126.405 81.0363ZM125.011 92.5509H123.696L122.733 100.514H124.048L125.011 92.5509ZM72.2788 85.7251L70.5477 90.0001H67.0752L66.9668 90.8963H70.608L70.9668 91.5513L73.1892 85.7251H72.2788ZM66.5064 93.3094L66.1644 96.1364H63.2311L62.9393 98.5496H65.2992L64.9154 101.721H62.5555L62.2717 104.066L65.2259 103.893L64.8964 106.617L68.1186 98.6531L66.5064 93.3094ZM56.5437 86.7594L55.7911 88.2417H66.4116L66.9954 86.7594H56.5437ZM56.7587 80.2438L54.1819 85.3803H56.1374L56.7587 80.2438ZM71.1406 108.789L70.066 105.41L68.6794 108.789H64.0603L64.7032 107.099L53.1863 107.823L53.57 104.652L56.8653 104.445L57.1948 101.721H54.7336L55.1173 98.5496H57.5785L57.8705 96.1364H54.8698L55.2492 92.9992H66.3752L65.9772 91.5513H55.121L55.4338 88.9656L53.3027 93.2062H54.3142L52.4289 108.789H46.7311L48.4619 94.4816H46.8435L50.7567 86.3801H47.7902L52.0488 78.2096H57.8138L57.1121 79.5541H59.0675L58.5961 83.4498H59.54L60.1615 78.3131H65.0503L64.4287 83.4498H65.4063L65.8778 79.5541H68.0017L67.1759 86.3801L70.4152 78.2787H75.1689L73.5599 82.3811H78.8194L78.4149 85.7251H78.0103L72.8425 98.3429L76.0291 108.789H71.1406ZM79.7401 107.099H87.3594L99.292 88.4487H91.6386L79.7401 107.099ZM105.205 108.685L107.837 86.9317H112.152L112.59 83.312H108.275L108.871 78.382H102.297L101.692 83.3808H82.5419L82.1125 86.9317H101.262L99.0477 105.238H91.8665L92.9329 108.685H105.205Z" fill="white"/>
<path fill-rule="evenodd" clip-rule="evenodd" d="M222.499 84.3203L222.179 87.5922H242.813L243.133 84.3203H222.499ZM221.175 92.5002L220.859 95.1369H225.235L224.375 102.316L218.955 107.224H225.203L228.968 103.882L230.017 95.1369H233.381L231.932 107.224H240.862L242.292 104.587H237.156L238.289 95.1369H242.817L243.133 92.5002H221.175Z" fill="#FFFF00"/>
<path fill-rule="evenodd" clip-rule="evenodd" d="M206.813 84.8622L205.795 92.9636C205.336 96.6147 204.508 98.2773 203.895 99.029L203.877 99.0508C203.428 99.6188 202.188 99.9442 200.475 99.9442C199.035 99.9442 197.972 99.7194 197.316 99.2751C197.204 99.1903 196.938 98.9143 196.685 98.1094C196.471 97.394 196.295 95.9208 196.666 92.9636L197.684 84.8622C198.176 80.9472 198.812 79.533 199.154 79.0286C199.745 78.1447 201.021 77.6967 202.946 77.6967C204.265 77.6967 205.97 77.8935 206.613 78.8427C206.856 79.1939 207.363 80.4835 206.813 84.8622ZM217 74.7663C216.204 73.0396 214.788 71.7151 212.801 70.833C210.986 70.0132 208.976 69.5977 206.826 69.5977H201.506C200.016 69.5977 198.479 69.8137 196.932 70.2414C194.51 70.9227 192.543 72.0145 191.085 73.4859C189.2 75.3868 187.954 78.9356 187.276 84.3345L185.976 94.6789C185.59 97.7549 185.635 100.372 186.107 102.441C186.455 104.06 187.366 105.456 188.827 106.6C190.584 107.944 193.181 108.598 196.768 108.598H201.764C206.065 108.598 209.184 107.657 211.298 105.723C213.858 103.386 215.414 99.773 216.054 94.6789L217.354 84.3345C217.934 79.7179 217.82 76.592 217 74.7663Z" fill="#FFFF00"/>
<path d="M147.828 120.081C147.116 120.504 146.488 120.804 145.944 120.981L144.727 120.424C145.417 120.131 146.041 119.818 146.598 119.485L147.828 120.081ZM143.198 120.424L141.981 120.981C141.454 120.67 140.809 120.375 140.045 120.094L141.275 119.498C141.992 119.744 142.633 120.053 143.198 120.424ZM149.804 122.244H138.264V121.143H149.804V122.244ZM148.865 129.814C148.865 130.367 148.737 130.734 148.483 130.915C148.228 131.101 147.755 131.193 147.064 131.193C146.792 131.193 146.503 131.185 146.197 131.168L145.828 130.028H147.485C147.546 130.028 147.602 129.993 147.654 129.924C147.71 129.855 147.738 129.784 147.738 129.71V122.969H148.865V129.814ZM143.956 129.963C143.956 130.304 143.883 130.563 143.736 130.74C143.593 130.921 143.419 131.04 143.211 131.096C143.008 131.157 142.648 131.187 142.13 131.187C141.871 131.187 141.64 131.18 141.437 131.168L141.023 130.028C141.213 130.049 141.418 130.06 141.638 130.06C142.143 130.06 142.473 130.043 142.629 130.008C142.788 129.974 142.868 129.883 142.868 129.736V128.396H140.323C140.125 129.613 139.727 130.563 139.132 131.245L138.16 130.624C138.946 129.834 139.339 128.45 139.339 126.473V123.079H143.956V129.963ZM142.868 125.229V124.141H140.453V125.229H142.868ZM142.868 127.386V126.259H140.453V127.386H142.868ZM146.449 128.992H145.297V123.261H146.449V128.992ZM163.04 131.077H154.887V129.963H158.319V126.712H155.347V125.573H158.319V122.762H154.965V121.648H158.319C158.038 121.001 157.747 120.42 157.445 119.906L158.649 119.615C158.999 120.215 159.306 120.893 159.569 121.648H162.787V122.762H159.498V125.573H162.47V126.712H159.498V129.963H163.04V131.077ZM155.055 120.172C154.11 121.571 153.063 122.587 151.915 123.222L151.371 122.192C152.51 121.467 153.393 120.617 154.019 119.641L155.055 120.172ZM155.386 123.423C155.096 123.906 154.708 124.459 154.22 125.08V131.304H153.028V126.356C152.774 126.606 152.402 126.885 151.915 127.191L151.397 126.116C152.489 125.387 153.48 124.312 154.369 122.892L155.386 123.423ZM175.706 121.208C174.286 122.49 172.792 123.634 171.225 124.64V130.054C171.225 130.356 171.137 130.602 170.96 130.792C170.787 130.986 170.577 131.109 170.331 131.161C170.085 131.213 169.647 131.239 169.017 131.239C168.706 131.239 168.389 131.232 168.065 131.219L167.56 129.937C168.725 129.946 169.418 129.944 169.639 129.931C169.863 129.918 169.975 129.836 169.975 129.685V124.005C171.512 123.038 172.777 122.106 173.77 121.208H165.242V120.003H175.706V121.208ZM183.49 130.28C183.49 130.652 183.373 130.904 183.14 131.038C182.911 131.172 182.486 131.239 181.865 131.239C181.631 131.239 181.405 131.232 181.185 131.219L180.867 130.144C181.58 130.175 182.024 130.19 182.201 130.19C182.361 130.19 182.441 130.106 182.441 129.937V128.318H179.618C179.501 129.514 179.264 130.509 178.905 131.304L177.947 130.585C178.167 130.11 178.348 129.512 178.491 128.791C178.633 128.066 178.704 127.42 178.704 126.855V123.196C178.562 123.304 178.465 123.371 178.413 123.397L177.882 122.348C178.668 121.722 179.402 120.806 180.084 119.602L181.159 119.893C181.072 120.101 180.98 120.282 180.88 120.437H183.173V121.46C182.862 121.892 182.525 122.317 182.162 122.736H183.49V130.28ZM181.871 121.46H180.2C179.734 122.061 179.38 122.486 179.138 122.736H180.783C181.055 122.447 181.418 122.022 181.871 121.46ZM182.441 124.977V123.753H181.606V124.977H182.441ZM180.615 124.977V123.753H179.741V124.977H180.615ZM182.441 127.295V126.006H181.606V127.295H182.441ZM180.615 127.295V126.006H179.741V127.295H180.615ZM189.325 119.991C189.325 120.936 189.301 121.696 189.253 122.27C189.206 122.84 189.13 123.213 189.027 123.39C188.927 123.563 188.774 123.701 188.567 123.805C188.364 123.908 188.062 123.96 187.66 123.96C187.44 123.96 187.213 123.949 186.98 123.928L186.676 122.84C187.021 122.866 187.384 122.879 187.764 122.879C187.837 122.879 187.906 122.848 187.971 122.788C188.036 122.723 188.086 122.52 188.12 122.179C188.155 121.834 188.172 121.448 188.172 121.02H186.857C186.723 122.639 185.92 123.744 184.448 124.336L183.755 123.41C185.02 122.965 185.67 122.169 185.705 121.02H184.248V119.991H189.325ZM189.577 129.043H187.453V131.245H186.313V129.043H183.995V127.988H186.313V126.622H185.212C185.074 126.963 184.908 127.314 184.714 127.677L183.755 127.166C184.239 126.315 184.576 125.385 184.766 124.375L185.769 124.698L185.562 125.573H186.313V124.349H187.453V125.573H189.389V126.622H187.453V127.988H189.577V129.043ZM201.738 126.829L195.548 129.834V128.577L200.107 126.505V126.466L195.548 124.148V122.885L201.738 126.162V126.829Z" fill="#2B3340"/>
</g>
<defs>
<clipPath id="clip0_1192_59740">
<rect width="284" height="166" fill="white" transform="translate(21.1737 0.3125) rotate(7)"/>
</clipPath>
</defs>
</svg>
