<svg width="92" height="38" viewBox="0 0 92 38" fill="none" xmlns="http://www.w3.org/2000/svg">
<mask id="mask0_852_7398" style="mask-type:alpha" maskUnits="userSpaceOnUse" x="0" y="0" width="92" height="38">
<path d="M92 0H0V38H92V0Z" fill="white"/>
</mask>
<g mask="url(#mask0_852_7398)">
<path fill-rule="evenodd" clip-rule="evenodd" d="M6.35339 5L87.7255 5C89.9347 5 91.7256 6.79086 91.7256 9C91.7256 9.13004 91.7192 9.25999 91.7065 9.38941L89.8531 28.3368C89.6528 30.3853 87.9305 31.9474 85.8721 31.9474H4.5C2.29086 31.9474 0.5 30.1565 0.5 27.9474C0.5 27.8173 0.506341 27.6874 0.519 27.558L2.37239 8.61059C2.57277 6.56205 4.29507 5 6.35339 5Z" fill="#2369FF"/>
<path fill-rule="evenodd" clip-rule="evenodd" d="M68.4552 11.0527L68.2164 13.4813H83.5777L83.8164 11.0527H68.4552ZM67.4695 17.1242L67.2341 19.0813H70.4921L69.8515 24.4098L65.8164 28.0527H70.4681L73.2712 25.5724L74.0516 19.0813H76.5564L75.4777 28.0527H82.1257L83.1896 26.0957H79.3666L80.21 19.0813H83.581L83.8164 17.1242H67.4695Z" stroke="#2369FF" stroke-width="4.33103" stroke-linejoin="round"/>
<path fill-rule="evenodd" clip-rule="evenodd" d="M59.0016 13.4463L58.3654 18.4318C58.0788 20.6786 57.5613 21.7018 57.1779 22.1643L57.1669 22.1777C56.8861 22.5273 56.1111 22.7276 55.0405 22.7276C54.1404 22.7276 53.4762 22.5892 53.0659 22.3158C52.9963 22.2636 52.8303 22.0937 52.6715 21.5984C52.5381 21.1582 52.428 20.2516 52.6602 18.4318L53.2962 13.4463C53.6038 11.0371 54.0014 10.1668 54.215 9.85637C54.5845 9.31246 55.3818 9.03676 56.5852 9.03676C57.4092 9.03676 58.4749 9.15785 58.8767 9.74197C59.0288 9.95813 59.3455 10.7517 59.0016 13.4463ZM65.3686 7.23344C64.8711 6.17087 63.9863 5.35578 62.7442 4.81296C61.6102 4.30848 60.3538 4.05273 59.0099 4.05273H55.6851C54.7535 4.05273 53.7931 4.18567 52.8262 4.4489C51.3124 4.86813 50.0829 5.53999 49.1721 6.44547C47.9938 7.61527 47.2152 9.79917 46.7911 13.1215L45.979 19.4873C45.7373 21.3802 45.7655 22.9908 46.0605 24.2641C46.278 25.2601 46.8477 26.1193 47.7609 26.8232C48.8588 27.6506 50.4822 28.0527 52.724 28.0527H55.8463C58.5342 28.0527 60.4836 27.4738 61.8048 26.2837C63.405 24.8454 64.3773 22.6222 64.7775 19.4873L65.5897 13.1215C65.9522 10.2806 65.8811 8.35695 65.3686 7.23344Z" stroke="#2369FF" stroke-width="7"/>
<path fill-rule="evenodd" clip-rule="evenodd" d="M24.488 10.5371L23.45 19.1348H17.8378L17.7672 19.7193H20.5274L20.9983 21.0014L21.5439 19.6815H23.9544L22.9023 22.6041H21.5774L23.1194 26.903H19.8441L17.6488 20.6997L17.1162 25.1118H18.7723L17.7832 26.903H13.7719L15.7477 10.5371H24.488ZM15.0668 10.5371L14.3453 16.514L12.955 17.5132L14.1085 18.4749L13.3505 24.7535H9.89118L9.6316 26.903H6.81641L8.79218 10.5371H15.0668ZM11.3509 18.6069H10.6331L10.1073 22.9623H10.825L11.3509 18.6069ZM20.773 15.7032H18.2521L18.0517 17.3624H20.5727L20.773 15.7032ZM12.1112 12.3094H11.3935L10.854 16.7779H11.5716L12.1112 12.3094ZM21.185 12.2904H18.6641L18.4638 13.9497H20.9847L21.185 12.2904ZM41.018 20.8506L40.2897 26.884H36.2047L35.8098 25.7339H33.3257L32.5454 21.5293H35.9495L36.5703 25.074H37.2327L37.7426 20.8506H32.1856L32.4019 19.0594H37.9589L38.0886 17.9846H41.364L41.2343 19.0594H42.2462L42.03 20.8506H41.018ZM32.6044 17.3813L32.8161 15.6279H35.9627L36.204 13.6292H33.6095L33.8144 11.9323H36.4088L36.6069 10.292H39.9558L39.7578 11.9323H42.5179L42.3131 13.6292H39.553L39.3115 15.6279H42.6421L42.4304 17.3813H32.6044ZM29.417 19.5496H28.6442L28.0295 24.6403H28.8023L29.417 19.5496ZM30.2432 12.7053H29.4705L28.8627 17.7396H29.6355L30.2432 12.7053ZM25.2395 26.4127L27.115 10.8765H33.0034L31.1278 26.4127H25.2395Z" fill="white"/>
<path fill-rule="evenodd" clip-rule="evenodd" d="M68.4087 11.0527L68.1741 13.4384H83.2643L83.4988 11.0527H68.4087ZM67.4404 17.017L67.2091 18.9396H70.4096L69.7803 24.1741L65.8164 27.7527H70.386L73.1397 25.3162L73.9063 18.9396H76.3669L75.3072 27.7527H81.8379L82.883 25.8303H79.1275L79.956 18.9396H83.2675L83.4988 17.017H67.4404Z" fill="#FFFF00"/>
<path fill-rule="evenodd" clip-rule="evenodd" d="M59.0016 13.4463L58.3654 18.4318C58.0788 20.6786 57.5613 21.7018 57.1779 22.1643L57.1669 22.1777C56.8861 22.5273 56.1111 22.7276 55.0405 22.7276C54.1404 22.7276 53.4762 22.5892 53.0659 22.3158C52.9963 22.2636 52.8303 22.0937 52.6715 21.5984C52.5381 21.1582 52.428 20.2516 52.6602 18.4318L53.2962 13.4463C53.6038 11.0371 54.0014 10.1668 54.215 9.85637C54.5845 9.31246 55.3818 9.03676 56.5852 9.03676C57.4092 9.03676 58.4749 9.15785 58.8767 9.74197C59.0288 9.95813 59.3455 10.7517 59.0016 13.4463ZM65.3686 7.23344C64.8711 6.17087 63.9863 5.35578 62.7442 4.81296C61.6102 4.30848 60.3538 4.05273 59.0099 4.05273H55.6851C54.7535 4.05273 53.7931 4.18567 52.8262 4.4489C51.3124 4.86813 50.0829 5.53999 49.1721 6.44547C47.9938 7.61527 47.2152 9.79917 46.7911 13.1215L45.979 19.4873C45.7373 21.3802 45.7655 22.9908 46.0605 24.2641C46.278 25.2601 46.8477 26.1193 47.7609 26.8232C48.8588 27.6506 50.4822 28.0527 52.724 28.0527H55.8463C58.5342 28.0527 60.4836 27.4738 61.8048 26.2837C63.405 24.8454 64.3773 22.6222 64.7775 19.4873L65.5897 13.1215C65.9522 10.2806 65.8811 8.35695 65.3686 7.23344Z" fill="#FFFF00"/>
<path fill-rule="evenodd" clip-rule="evenodd" d="M44 38L52.5 29H35.5L44 38Z" fill="#2369FF"/>
</g>
</svg>
