<svg width="36" height="36" viewBox="0 0 36 36" fill="none" xmlns="http://www.w3.org/2000/svg">
<ellipse cx="18" cy="18" rx="18" ry="18" fill="white"/>
<path d="M35.5 18C35.5 27.665 27.665 35.5 18 35.5C8.33501 35.5 0.5 27.665 0.5 18C0.5 8.33501 8.33501 0.5 18 0.5C27.665 0.5 35.5 8.33501 35.5 18Z" stroke="black" stroke-opacity="0.12"/>
<path d="M27 28C25.97 28 24.94 27.75 24 27.25C22.11 28.25 19.89 28.25 18 27.25C16.11 28.25 13.89 28.25 12 27.25C11.05 27.75 10.03 28 9 28H8V26H9C10.04 26 11.08 25.65 12 25C13.83 26.3 16.17 26.3 18 25C19.83 26.3 22.17 26.3 24 25C24.91 25.65 25.96 26 27 26H28V28H27ZM23 6.5C21.9 6.5 21 7.4 21 8.5C21 9.6 21.9 10.5 23 10.5C24.1 10.5 25 9.6 25 8.5C25 7.4 24.1 6.5 23 6.5ZM20.43 13.48L18.18 15L22 18V21.84C22.53 22.22 23.03 22.62 23.49 23.01C22.81 23.59 21.94 24 21 24C19.8 24 18.73 23.34 18 22.5C17.27 23.34 16.2 24 15 24C14.67 24 14.35 23.95 14.04 23.86C11.19 21.9 9 19.72 9 18.28C9 17.25 10.01 17 10.85 17C11.83 17 13.13 17.31 14.55 17.83L13.83 13.59L16.95 11.49L14.95 11.12L12.13 13.05L11 11.4L14.5 9L20.05 10.03C20.5 10.12 20.98 10.4 21.27 10.92L22.15 12.47C22.5873 13.2381 23.22 13.8768 23.9841 14.3212C24.7481 14.7656 25.6161 14.9998 26.5 15V17C25.2682 16.9983 24.0585 16.6721 22.9929 16.0541C21.9273 15.4362 21.0433 14.5483 20.43 13.48ZM16.3 16.1L16.74 18.75C17.66 19.17 19.22 20.02 20 20.5V19L16.3 16.1Z" fill="#D96749"/>
</svg>
