<svg width="20" height="20" viewBox="0 0 20 20" fill="none" xmlns="http://www.w3.org/2000/svg">
<circle cx="10" cy="10" r="10" fill="white"/>
<circle cx="10" cy="10" r="9.5" stroke="black" stroke-opacity="0.12"/>
<path d="M6.51661 7.66965C5.74766 8.439 5.31471 9.48175 5.31251 10.5697C5.31031 11.6576 5.73904 12.7021 6.50486 13.4746C7.36824 11.4769 8.90705 9.8083 10.8276 8.81536C9.16992 10.2185 8.05091 12.1541 7.66191 14.2912C9.18897 15.0139 11.0684 14.7495 12.3312 13.4863C14.0873 11.7296 14.5807 6.9411 14.6864 5.625C14.6901 5.58319 14.6845 5.54107 14.6702 5.50162C14.6559 5.46216 14.6331 5.42634 14.6034 5.39665C14.5737 5.36697 14.5379 5.34415 14.4985 5.3298C14.459 5.31545 14.4169 5.30993 14.3751 5.31361C13.0595 5.41936 8.27273 5.9129 6.51661 7.66965Z" fill="#73A861"/>
</svg>
