<svg width="259" height="100" viewBox="0 0 259 100" fill="none" xmlns="http://www.w3.org/2000/svg">
<path d="M213.1 29.7295H217.95V23.7295H213.1V6.01953H218.08V0.0195312H197.01V3.91953C197.01 5.07953 197.95 6.01953 199.11 6.01953H202.6V23.7295H197.01V29.7295H202.6V53.9795H199.11C197.95 53.9795 197.01 54.9195 197.01 56.0795V59.9795L213.73 60.0195L215.22 53.9795H213.1V29.7295Z" fill="#232A35"/>
<path d="M232.82 0.02H222.28V0.17C222.24 1 222.23 5.79 222.24 11.86H216.52V15.76C216.52 16.92 217.46 17.86 218.62 17.86H222.25C222.27 25.56 222.3 33.86 222.32 38.5C222.33 40.95 222.04 43.4 221.45 45.78L217.95 60.01H228.49L232.01 45.77C232.61 43.35 232.9 40.87 232.88 38.37C232.81 28.79 232.66 3.88 232.82 0V0.02Z" fill="#232A35"/>
<path d="M155.76 51.0195H145.22V60.0195H155.76V51.0195Z" fill="#232A35"/>
<path d="M170.76 51.0195H160.26V60.0195H170.76V51.0195Z" fill="#232A35"/>
<path d="M145.43 4.51953V6.01953H139.73L140.92 0.0195312H130.39L128.02 12.0195H155.94V2.41953H147.54C146.38 2.41953 145.44 3.35953 145.44 4.51953H145.43Z" fill="#232A35"/>
<path d="M186.53 35.5595L188.01 29.5595H170.76V27.6195C170.76 26.4595 169.82 25.5195 168.66 25.5195H160.26V47.1195H186.23L188 39.9195H170.75V35.5595H186.52H186.53Z" fill="#232A35"/>
<path d="M186.53 10.0595L188.01 4.05953H170.76V2.11953C170.76 0.959531 169.82 0.0195312 168.66 0.0195312H160.26V21.6195H186.23L188 14.4195H170.75V10.0595H186.52H186.53Z" fill="#232A35"/>
<path d="M145.26 15.9199H128.01V47.1199H136.41C137.57 47.1199 138.51 46.1799 138.51 45.0199V42.3199H145.26V47.1199H155.76V15.9199H145.26ZM145.26 21.9199V26.1199H138.51V21.9199H145.26ZM138.51 36.3199V32.1199H145.26V36.3199H138.51Z" fill="#232A35"/>
<path d="M254.91 6.06055C256.07 6.06055 257.01 5.12055 257.01 3.96055V0.0605469H236.91V6.06055H240.92V23.7305H236.91V29.7305H240.92V53.9805H233.88L232.39 60.0205L257.01 59.9805V56.0805C257.01 54.9205 256.07 53.9805 254.91 53.9805H251.42V29.7305H257.01V23.7305H251.42V6.06055H254.91Z" fill="#232A35"/>
<path d="M128.01 60.0195H136.91C137.88 60.0195 138.72 59.3595 138.95 58.4195L140.77 51.0195H130.23L128.02 60.0195H128.01Z" fill="#232A35"/>
<path d="M175.26 51.0195L177.08 58.4195C177.31 59.3595 178.15 60.0195 179.12 60.0195H188.02L185.81 51.0195H175.27H175.26Z" fill="#232A35"/>
<path d="M21.96 17.0596H21.71L23.41 10.5996L9.61 17.3796L7.04 27.1296C10.04 25.2796 14.04 24.6596 18.04 25.7896C18.27 25.8496 18.49 25.9396 18.71 26.0096C19.55 26.2496 20.41 26.6096 21.37 27.1596C21.83 27.4196 22.26 27.6996 22.67 28.0096H22.68C22.87 28.1596 23.06 28.3096 23.24 28.4596C26.9 31.3796 28.74 35.8396 27.54 40.0796C26.37 44.2296 22.62 47.0596 18.1 47.7196C16.98 47.9096 15.86 47.9396 14.78 47.8196C13.85 47.7396 12.92 47.5796 11.98 47.3196C8.27 46.2796 5.34 43.9496 3.67 41.1096C3.49 40.8096 3.46 40.7496 3.46 40.7496L2.18 45.5696L1 50.1096L1.18 50.3696C5.19 56.4096 11.91 60.0196 19.15 60.0196C31.04 60.0196 40.72 50.3496 40.72 38.4496C40.72 27.6696 32.66 18.4796 21.96 17.0896V17.0596Z" fill="#232A35"/>
<path d="M14.2099 0.0195312L9.60986 17.3795L23.4099 10.5995H35.9999L45.4399 0.0195312H14.2099Z" fill="#FA1E50"/>
<path d="M47.4302 10.5895L55.0202 10.5995L50.1202 59.9995H62.4302L68.3802 0.0195312H56.8502L47.4302 10.5895Z" fill="#232A35"/>
<path d="M112.39 23.2988C113.47 20.8088 113.95 18.0188 113.68 15.1288C112.8 5.94883 104.65 -0.781167 95.4702 0.0988329C86.2902 0.968833 79.5602 9.11883 80.4302 18.2988C80.6002 20.0688 81.0502 21.7488 81.7102 23.3088C77.8602 27.1988 75.4902 32.5488 75.4902 38.4588C75.4902 40.3388 75.7302 42.1688 76.1902 43.9088C78.6002 53.1788 87.0302 60.0188 97.0602 60.0188C108.32 60.0188 117.56 51.3788 118.53 40.3788C118.59 39.7488 118.62 39.1088 118.62 38.4588C118.62 32.5488 116.24 27.1988 112.39 23.2988ZM87.0702 38.4588C87.0702 32.9388 91.5402 28.4688 97.0602 28.4688C102.58 28.4688 107.05 32.9388 107.05 38.4588C107.05 38.5288 107.05 38.5988 107.05 38.6588C106.94 44.0788 102.51 48.4488 97.0602 48.4488C91.6102 48.4488 87.1602 44.0588 87.0702 38.6188C87.0702 38.5688 87.0702 38.5088 87.0702 38.4588ZM91.2602 16.3988C91.2602 13.1988 93.8602 10.5988 97.0602 10.5988C100.26 10.5988 102.86 13.1988 102.86 16.3988C102.86 16.8288 102.81 17.2488 102.72 17.6488C102.15 20.2488 99.8302 22.1988 97.0602 22.1988C94.2902 22.1988 91.9702 20.2488 91.4002 17.6488C91.3102 17.2488 91.2602 16.8288 91.2602 16.3988Z" fill="#232A35"/>
<path d="M12.7699 90.4805V92.5005H1.1499V90.4805H12.7699Z" fill="#2B3340"/>
<path d="M35.9698 80.6607H44.3598V82.7807H27.6698V87.5607C27.5998 92.6207 26.7698 96.6707 25.1898 99.7007L23.5298 98.2307C24.7898 95.6807 25.4598 92.1107 25.5098 87.5607V80.6607H33.7398C33.4198 79.9907 33.0498 79.4007 32.6798 78.8407L34.9598 78.4707C35.3298 79.1407 35.6498 79.8707 35.9698 80.6507V80.6607ZM36.5198 83.4907V85.9707H43.8498V88.0407H36.5198V90.9607H42.5398V99.7907H40.3798V98.7807H31.3198V99.7907H29.1598V90.9607H34.3298V83.4907H36.5098H36.5198ZM40.3798 96.7407V92.9907H31.3198V96.7407H40.3798Z" fill="#2B3340"/>
<path d="M61.37 86.0202H72.32V87.8602H61.37V89.3102H75.67V91.3302H60.88V97.4502C62.74 97.0802 64.6 96.5802 66.47 95.9302L66.86 97.8602C64.56 98.6402 61.94 99.2602 58.95 99.7702L58.1 97.9502C58.56 97.7402 58.79 97.4702 58.79 97.1002V91.3302H55.75V89.3102H59.25V79.2402H73.48V81.2602H61.36V82.7602H72.28V84.6002H61.36V86.0302L61.37 86.0202ZM69.19 94.4102C70.5 93.8102 71.77 92.8902 72.98 91.6502L74.38 93.1002C73.32 94.1802 72.13 95.0302 70.79 95.6802C72.33 96.7102 74.17 97.5202 76.31 98.0702L75.09 99.8902C70.49 98.6002 67.23 96.2102 65.29 92.6702L66.99 91.6802C67.59 92.6902 68.3 93.6102 69.17 94.4202L69.19 94.4102Z" fill="#2B3340"/>
<path d="M87.5898 99.5613L87.1098 97.4413C87.7298 97.5113 88.3298 97.5613 88.8998 97.5613C89.4698 97.5613 89.7698 97.2813 89.7698 96.7313V91.7913C88.8998 92.1413 88.0198 92.4613 87.1498 92.7813L86.5498 90.5013C87.6298 90.2513 88.7098 89.9213 89.7698 89.5313V84.7213H87.0098V82.6313H89.7698V78.6113H91.9298V82.6313H94.4598V84.7213H91.9298V88.6313C92.6898 88.2613 93.4298 87.8913 94.1598 87.4813V89.6913C93.4198 90.1013 92.6698 90.4713 91.9298 90.8413V97.2813C91.9298 98.8013 91.1698 99.5613 89.6498 99.5613H87.5798H87.5898ZM95.4298 81.4413V79.3713H107.14C107.12 83.8813 106.84 86.5713 106.34 87.4613C105.79 88.3313 104.89 88.7713 103.63 88.7713C103.12 88.7713 102.55 88.7213 101.88 88.6513L101.35 86.7413C102.09 86.7913 102.68 86.8313 103.14 86.8813C103.92 86.8313 104.43 86.5413 104.66 85.9413C104.84 85.3613 104.98 83.8713 105.03 81.4313H101.17C100.78 83.2713 100.27 84.7413 99.6498 85.8513C98.8398 87.1413 97.6498 88.3113 96.0398 89.3713L94.7098 87.6513C96.0698 86.8213 97.0798 85.9013 97.7698 84.8913C98.3198 83.9913 98.7398 82.8413 99.0298 81.4413H95.4398H95.4298ZM106.74 99.7713H104.58V98.9713H97.9798V99.7713H95.8198V89.9113H106.74V99.7713ZM104.58 96.8713V92.0213H97.9798V96.8713H104.58Z" fill="#2B3340"/>
<path d="M118.94 90.0909L118.23 87.7709C120.62 85.1009 122.39 82.0009 123.52 78.4609L125.57 79.4309C124.97 81.2209 124.21 82.9509 123.25 84.5609V99.8309H121.07V87.7109C120.4 88.5409 119.69 89.3209 118.95 90.1009L118.94 90.0909ZM126 88.0009L124.11 86.8309C125.83 84.2809 127.05 81.5409 127.77 78.6009L129.82 79.0409C129.61 79.8009 129.41 80.5409 129.18 81.2209H138.84V82.6509C138.47 84.0309 138.04 85.4109 137.48 86.7909L135.39 86.1909C135.85 85.3609 136.26 84.4009 136.59 83.3409H128.43C127.74 85.0409 126.94 86.5809 126.02 88.0109L126 88.0009ZM129.36 88.5309C128.55 91.7009 127.52 94.4609 126.23 96.8509L124.18 96.1109C125.4 93.9709 126.48 91.2609 127.4 87.9709L129.36 88.5209V88.5309ZM128.12 99.6609L127.64 97.5909C128.58 97.6809 129.48 97.7509 130.33 97.7509C130.88 97.7509 131.16 97.4509 131.16 96.8509V85.0109H133.28V97.4009C133.28 98.8909 132.54 99.6509 131.07 99.6509H128.13L128.12 99.6609ZM139.41 96.3709L137.5 97.2409C136.63 93.9109 135.66 90.9609 134.6 88.3909L136.53 87.7509C137.63 90.4409 138.6 93.3209 139.41 96.3709Z" fill="#2B3340"/>
<path d="M159.55 83.0002H151.3V80.9102H159.55V78.6602H161.76V80.9102H170.04V83.0002H161.76V89.1402C164.1 92.3402 167.28 94.8702 171.26 96.7002L170.06 98.7502C166.86 97.1402 164.1 95.0002 161.76 92.2902V99.7402H159.55V92.3402C157.39 94.9402 154.65 97.1002 151.3 98.8502L150.15 96.8702C154.2 94.8902 157.32 92.3602 159.55 89.2602V83.0102V83.0002ZM152.24 91.4802L150.88 89.8202C152.77 88.2802 154.03 86.2102 154.67 83.5902L156.69 83.9302C156.39 85.0802 156.02 86.1102 155.59 87.0602C156.65 87.6102 157.59 88.2602 158.46 88.9502L157.31 90.7702C156.44 89.9902 155.54 89.3202 154.62 88.7702C153.93 89.8302 153.13 90.7202 152.23 91.4802H152.24ZM164.31 90.8102L162.98 89.1102C164.52 87.7302 165.56 85.9102 166.11 83.6402L168.16 83.9802C167.91 85.0402 167.58 86.0002 167.19 86.8802C168.39 87.5502 169.49 88.3102 170.5 89.1602L169.26 91.0202C168.27 90.0502 167.26 89.2502 166.25 88.6102C165.7 89.4402 165.05 90.1702 164.32 90.8202L164.31 90.8102Z" fill="#2B3340"/>
<path d="M192.35 78.5918V85.5118H200.86V87.6318H192.35V96.8718H202.63V98.9918H182.03V96.8718H190.1V78.5918H192.35Z" fill="#2B3340"/>
<path d="M213.65 82.1303V80.1103H220.73V82.1303H218.25V87.4903H220.43V89.4903H218.25V94.9203C219.12 94.5803 219.97 94.2103 220.83 93.7903V95.9703C218.67 96.9403 216.37 97.7603 213.89 98.4503L213.34 96.3603C214.28 96.1803 215.23 95.9203 216.14 95.6503V89.4903H213.86V87.4903H216.14V82.1303H213.66H213.65ZM225.72 78.5703V85.2803C225.65 91.9303 224.29 96.7803 221.63 99.8403L220 98.4103C221.93 96.1803 223.08 92.8503 223.45 88.4303C222.44 87.3303 221.43 86.4303 220.37 85.7403L221.29 83.9903C222.07 84.5003 222.83 85.1403 223.57 85.9203C223.57 85.6903 223.59 85.4803 223.59 85.2803V78.5703H225.73H225.72ZM226.64 81.9503V79.9503H234.18V81.9503H231.44V87.8803H233.83V89.9003H231.44V96.9803H234.52V99.0003H225.83V96.9803H229.33V89.9003H226.89V87.8803H229.33V81.9503H226.64Z" fill="#2B3340"/>
<path d="M256.86 90.4805V92.5005H245.25V90.4805H256.86Z" fill="#2B3340"/>
</svg>
