<svg xmlns="http://www.w3.org/2000/svg" width="32" height="32" viewBox="0 0 32 32">
    <g fill="none" fill-rule="evenodd">
        <g>
            <g>
                <g>
                    <g>
                        <path d="M0 0L32 0 32 32 0 32z" transform="translate(-860.000000, -153.000000) translate(-140.000000, 0.000000) translate(1000.000000, 153.000000) translate(16.000000, 16.000000) rotate(90.000000) translate(-16.000000, -16.000000)"/>
                        <path fill="#FA3461" d="M17.6 3.362c.108.092.208.192.3.3 1.293 1.536 2.454 2.515 3.483 2.938.802.33 2.086.395 3.852.196.686-.078 1.305.416 1.382 1.102.005.046.008.093.008.14v12.027c0 .803-.31 1.576-.865 2.157-3.827 4.01-7.074 6.014-9.74 6.014-2.666 0-5.915-2.004-9.748-6.013-.556-.582-.866-1.355-.866-2.16V8.036c0-.69.56-1.25 1.25-1.25.047 0 .093.003.14.008 1.737.195 2.993.13 3.766-.194 1.055-.441 2.213-1.406 3.477-2.895l.038-.045c.89-1.055 2.468-1.188 3.523-.298zm-2.084 1.5l-.008.01-.04.047c-1.437 1.694-2.81 2.837-4.182 3.411-.99.414-2.282.528-3.94.4l-.065-.005v11.338c0 .316.12.62.335.851l.012.013c3.51 3.673 6.366 5.434 8.392 5.434s4.878-1.76 8.384-5.433c.218-.229.341-.53.346-.846V8.727l-.023.002c-1.684.136-3.005.028-4.022-.38l-.035-.014c-1.36-.56-2.735-1.719-4.205-3.465-.019-.023-.04-.044-.061-.063l-.014-.012c-.26-.22-.649-.19-.874.067zm6.55 6.688c.351.374.336.96-.031 1.314l-.011.011-6.83 6.399c-.206.193-.476.275-.736.248-.271.035-.555-.05-.767-.254l-.011-.01-3.523-3.502c-.367-.365-.37-.958-.004-1.325.361-.364.946-.37 1.315-.015l.01.01 2.983 2.965 6.28-5.884c.379-.354.972-.335 1.326.043z" transform="translate(-860.000000, -153.000000) translate(-140.000000, 0.000000) translate(1000.000000, 153.000000)"/>
                    </g>
                </g>
            </g>
        </g>
    </g>
</svg>
