<svg xmlns:xlink="http://www.w3.org/1999/xlink" xmlns="http://www.w3.org/2000/svg" width="16" height="17" viewBox="0 0 16 17" fill="none">
<path fill-rule="evenodd" clip-rule="evenodd" d="M13.9387 6.22627C14.7017 5.13956 14.4542 3.63773 13.376 2.85437C12.287 2.06309 10.7626 2.30452 9.97134 3.39362L9.22379 4.39976L9.21975 4.40529C9.08819 4.58849 9.1275 4.84405 9.30923 4.97906C9.49279 5.11544 9.75215 5.07719 9.88853 4.89363L10.6387 3.88394L10.6571 3.85897C11.1839 3.15818 12.1774 3.00711 12.8893 3.52433C13.6084 4.04678 13.7678 5.05323 13.2453 5.77231L10.0309 10.1966L10.0151 10.218C9.48834 10.9188 8.49479 11.0699 7.7829 10.5527C7.06382 10.0302 6.90441 9.02377 7.42686 8.30469L7.6358 8.01711L7.63978 8.01154C7.76938 7.82694 7.72735 7.57182 7.54419 7.43875C7.35919 7.30433 7.10024 7.34534 6.96583 7.53035L6.75689 7.81793L6.73346 7.85073C5.97053 8.93744 6.21794 10.4393 7.29614 11.2226C8.38524 12.0139 9.90957 11.7725 10.7008 10.6834L13.9153 6.25907L13.9387 6.22627ZM2.04725 10.8155C1.28431 11.9022 1.53172 13.4041 2.60993 14.1874C3.6984 14.9783 5.22162 14.7376 6.01328 13.6501L6.76218 12.6421L6.76622 12.6365C6.89778 12.4533 6.85847 12.1978 6.67675 12.0628C6.49318 11.9264 6.23382 11.9646 6.09744 12.1482L5.34728 13.1579L5.32885 13.1828C4.80212 13.8836 3.80858 14.0347 3.09669 13.5175C2.37761 12.995 2.2182 11.9886 2.74064 11.2695L5.95509 6.84519L5.97091 6.82379C6.49764 6.12299 7.49118 5.97193 8.20307 6.48915C8.92215 7.01159 9.08156 8.01804 8.55912 8.73712L8.35018 9.0247L8.3462 9.03028C8.2166 9.21488 8.25862 9.47 8.44178 9.60307C8.62679 9.73748 8.88573 9.69647 9.02014 9.51146L9.22908 9.22388L9.25251 9.19108C10.0154 8.10438 9.76803 6.60254 8.68983 5.81918C7.60074 5.02791 6.0764 5.26934 5.28513 6.35843L2.07067 10.7827L2.04725 10.8155Z" fill="#80858C"/>
</svg>