<svg xmlns:xlink="http://www.w3.org/1999/xlink" xmlns="http://www.w3.org/2000/svg" width="16" height="17" viewBox="0 0 16 17" fill="none">
<path fill-rule="evenodd" clip-rule="evenodd" d="M13.9382 6.22822C14.7012 5.14152 14.4538 3.63968 13.3756 2.85632C12.2865 2.06505 10.7621 2.30648 9.97085 3.39557L9.2233 4.40171L9.21927 4.40724C9.0877 4.59045 9.12701 4.846 9.30874 4.98102C9.4923 5.1174 9.75167 5.07915 9.88804 4.89558L10.6382 3.88589L10.6566 3.86093C11.1834 3.16013 12.1769 3.00907 12.8888 3.52629C13.6079 4.04873 13.7673 5.05518 13.2448 5.77426L10.0304 10.1986L10.0146 10.22C9.48785 10.9208 8.4943 11.0718 7.78241 10.5546C7.06333 10.0322 6.90393 9.02572 7.42637 8.30664L7.63531 8.01906L7.63929 8.01349C7.76889 7.82889 7.72686 7.57377 7.5437 7.4407C7.3587 7.30628 7.09976 7.3473 6.96534 7.5323L6.7564 7.81988L6.73297 7.85269C5.97004 8.93939 6.21745 10.4412 7.29565 11.2246C8.38475 12.0159 9.90909 11.7744 10.7004 10.6853L13.9148 6.26102L13.9382 6.22822ZM2.04676 10.8175C1.28383 11.9042 1.53124 13.406 2.60944 14.1894C3.69791 14.9802 5.22113 14.7395 6.01279 13.652L6.76169 12.644L6.76573 12.6385C6.89729 12.4553 6.85799 12.1997 6.67626 12.0647C6.4927 11.9283 6.23333 11.9666 6.09695 12.1501L5.34679 13.1598L5.32836 13.1848C4.80163 13.8856 3.80809 14.0367 3.0962 13.5194C2.37712 12.997 2.21771 11.9905 2.74015 11.2715L5.9546 6.84714L5.97042 6.82574C6.49715 6.12494 7.49069 5.97388 8.20258 6.4911C8.92166 7.01354 9.08107 8.02 8.55863 8.73908L8.34969 9.02666L8.34571 9.03223C8.21611 9.21683 8.25814 9.47195 8.44129 9.60502C8.6263 9.73944 8.88524 9.69842 9.01966 9.51342L9.2286 9.22584L9.25202 9.19303C10.015 8.10633 9.76754 6.60449 8.68934 5.82113C7.60025 5.02986 6.07591 5.27129 5.28464 6.36038L2.07019 10.7847L2.04676 10.8175Z" fill="white"/>
</svg>