<svg xmlns="http://www.w3.org/2000/svg" xmlns:xlink="http://www.w3.org/1999/xlink" width="15" height="14" viewBox="0 0 15 14" version="1.1">
    <!-- Generator: Sketch 63.1 (92452) - https://sketch.com -->
    <title>Mask</title>
    <desc>Created with Sketch.</desc>
    <defs>
        <path d="M10.0902317,4.20955121 C9.444117,2.93121671 8.7969308,1.65288221 8.1518875,0.374547714 C8.002949,0.0816185139 7.7490034,-0.0228451861 7.5004153,0.00407841387 C7.2507557,-0.0217682861 6.9978816,0.0816185139 6.8500145,0.374547714 L4.9105988,4.21062811 C3.4555013,4.41632471 1.9982608,4.62309831 0.542091704,4.82987191 C-0.0354469957,4.91171971 -0.159740996,5.70650561 0.208855104,6.05866691 C1.244996,7.04299521 2.2789939,8.02947741 3.3140633,9.01272881 C3.0751187,10.375065 2.8361741,11.7363243 2.5972295,13.0975836 C2.4857934,13.7286738 3.0826192,14.218684 3.7040894,13.8999081 C4.9695314,13.2505099 6.2339018,12.59465 7.5004153,11.9280206 C8.7658572,12.59465 10.0312992,13.2505099 11.2956697,13.8999081 C11.9182114,14.218684 12.5150371,13.7146735 12.4046726,13.0835833 C12.1625135,11.722324 11.9267834,10.3675264 11.6856958,9.00949791 C12.7218367,8.02409271 13.7569061,7.04084131 14.7909039,6.05651301 C15.1605716,5.70435171 15.0341345,4.91064281 14.4587388,4.82879491 C13.0047128,4.62202141 11.5453293,4.41632471 10.0902317,4.20955121 Z" id="path-1"/>
    </defs>
    <g id="Symbols" stroke="none" stroke-width="1" fill="none" fill-rule="evenodd">
        <g id="Job-/-Rating-/-PC" transform="translate(-209.000000, -78.000000)">
            <g id="yellow-star" transform="translate(152.000000, 78.000000)">
                <g id="Rectangle" transform="translate(57.000000, 0.000000)">
                    <mask id="mask-2" fill="white">
                        <use xlink:href="#path-1"/>
                    </mask>
                    <use id="Mask" fill="#EBEFF5" fill-rule="nonzero" xlink:href="#path-1"/>
                </g>
            </g>
        </g>
    </g>
</svg>