<svg xmlns:xlink="http://www.w3.org/1999/xlink" xmlns="http://www.w3.org/2000/svg" width="16" height="17" viewBox="0 0 16 17" fill="none">
<path d="M15.0328 7.88749C15.0666 7.70979 15.0833 7.56027 15.0909 7.44299C15.1036 7.24943 15.0892 6.96206 15.084 6.87209C14.9057 3.77126 11.6886 1.30078 7.7461 1.30078C3.68914 1.30078 0.400391 3.91668 0.400391 7.14355C0.400391 10.1095 3.17884 12.5593 6.77844 12.9361C6.99851 12.9591 7.15719 13.1578 7.13279 13.3777L6.97953 14.7571C6.94473 15.0703 7.26852 15.2981 7.55228 15.1611C10.5935 13.6934 12.412 12.1835 13.498 10.8753C13.6956 10.6373 14.3399 9.73448 14.4713 9.49736C14.7502 8.99398 14.9424 8.45342 15.0328 7.88749Z" fill="white"/>
<path fill-rule="evenodd" clip-rule="evenodd" d="M9.06086 5.86405V7.5971C9.06086 7.5971 7.56026 5.63979 7.53736 5.61407C7.46566 5.53361 7.36 5.48411 7.24272 5.48856C7.03833 5.49631 6.88159 5.67494 6.88159 5.87946V8.70086C6.88159 8.90838 7.04982 9.07661 7.25734 9.07661C7.46487 9.07661 7.6331 8.90838 7.6331 8.70086V6.97833C7.6331 6.97833 9.15652 8.95268 9.17889 8.97391C9.24535 9.0368 9.33462 9.07573 9.43314 9.07661C9.64181 9.07851 9.81238 8.89393 9.81238 8.68527V5.86405C9.81238 5.65653 9.64414 5.48828 9.43662 5.48828C9.2291 5.48834 9.06086 5.65653 9.06086 5.86405ZM5.8601 9.07666H6.02438C6.18653 9.07666 6.318 8.9452 6.318 8.78304V5.78192C6.318 5.61976 6.18653 5.4883 6.02438 5.4883H5.8601C5.69794 5.4883 5.56648 5.61976 5.56648 5.78192V8.78304C5.56648 8.9452 5.69794 9.07666 5.8601 9.07666ZM3.70659 5.86405V8.32515H4.83382C5.04134 8.32515 5.20958 8.49338 5.20958 8.7009C5.20958 8.90843 5.04134 9.07666 4.83382 9.07666H3.33083C3.12331 9.07666 2.95508 8.90843 2.95508 8.7009V5.86405C2.95508 5.65653 3.12331 5.4883 3.33083 5.4883C3.53836 5.4883 3.70659 5.65653 3.70659 5.86405ZM12.2547 5.4883C12.4622 5.4883 12.6304 5.65653 12.6304 5.86405C12.6304 6.07157 12.4622 6.23981 12.2547 6.23972H11.1274V6.90668H12.2547C12.4622 6.90668 12.6304 7.07491 12.6304 7.28243C12.6304 7.48995 12.4622 7.65819 12.2547 7.65819H11.1274V8.32515H12.2547C12.4622 8.32515 12.6304 8.49338 12.6304 8.7009C12.6304 8.90842 12.4622 9.07666 12.2547 9.07666H10.7517C10.5442 9.07666 10.3759 8.90842 10.3759 8.7009V5.86405C10.3759 5.65653 10.5442 5.4883 10.7517 5.4883H12.2547Z" fill="#00B900"/>
</svg>