<svg xmlns:xlink="http://www.w3.org/1999/xlink" xmlns="http://www.w3.org/2000/svg" width="16" height="17" viewBox="0 0 16 17" fill="none">
<path d="M15.0325 7.88749C15.0662 7.70979 15.0829 7.56027 15.0906 7.44299C15.1033 7.24943 15.0888 6.96206 15.0837 6.87209C14.9054 3.77126 11.6883 1.30078 7.74574 1.30078C3.68878 1.30078 0.400024 3.91668 0.400024 7.14355C0.400024 10.1095 3.17848 12.5593 6.77807 12.9361C6.99814 12.9591 7.15682 13.1578 7.13242 13.3777L6.97916 14.7571C6.94437 15.0703 7.26816 15.2981 7.55191 15.1611C10.5931 13.6934 12.4116 12.1835 13.4976 10.8753C13.6952 10.6373 14.3396 9.73448 14.471 9.49736C14.7498 8.99398 14.9421 8.45342 15.0325 7.88749Z" fill="#00B900"/>
<path fill-rule="evenodd" clip-rule="evenodd" d="M9.06074 5.866V7.59906C9.06074 7.59906 7.56014 5.64175 7.53723 5.61603C7.46554 5.53556 7.35988 5.48606 7.2426 5.49051C7.03821 5.49826 6.88147 5.67689 6.88147 5.88142V8.70281C6.88147 8.91033 7.0497 9.07857 7.25722 9.07857C7.46474 9.07857 7.63298 8.91033 7.63298 8.70281V6.98028C7.63298 6.98028 9.1564 8.95463 9.17877 8.97586C9.24523 9.03875 9.3345 9.07769 9.43302 9.07857C9.64168 9.08046 9.81225 8.89588 9.81225 8.68722V5.866C9.81225 5.65848 9.64402 5.49023 9.4365 5.49023C9.22898 5.49029 9.06074 5.65848 9.06074 5.866ZM5.85998 9.07861H6.02425C6.18641 9.07861 6.31787 8.94715 6.31787 8.78499V5.78387C6.31787 5.62171 6.18641 5.49025 6.02425 5.49025H5.85998C5.69782 5.49025 5.56636 5.62171 5.56636 5.78387V8.78499C5.56636 8.94715 5.69782 9.07861 5.85998 9.07861ZM3.70647 5.86601V8.3271H4.8337C5.04122 8.3271 5.20945 8.49534 5.20945 8.70286C5.20945 8.91038 5.04122 9.07861 4.8337 9.07861H3.33071C3.12319 9.07861 2.95496 8.91038 2.95496 8.70286V5.86601C2.95496 5.65848 3.12319 5.49025 3.33071 5.49025C3.53823 5.49025 3.70647 5.65848 3.70647 5.86601ZM12.2545 5.49025C12.4621 5.49025 12.6303 5.65848 12.6303 5.86601C12.6303 6.07353 12.4621 6.24176 12.2545 6.24167H11.1273V6.90863H12.2545C12.4621 6.90863 12.6303 7.07687 12.6303 7.28439C12.6303 7.49191 12.4621 7.66014 12.2545 7.66014H11.1273V8.3271H12.2545C12.4621 8.3271 12.6303 8.49534 12.6303 8.70286C12.6303 8.91038 12.4621 9.07861 12.2545 9.07861H10.7516C10.544 9.07861 10.3758 8.91038 10.3758 8.70286V5.86601C10.3758 5.65848 10.544 5.49025 10.7516 5.49025H12.2545Z" fill="white"/>
</svg>