<svg xmlns:xlink="http://www.w3.org/1999/xlink" xmlns="http://www.w3.org/2000/svg" width="18" height="18" viewBox="0 0 18 18">
    <g fill="none" fill-rule="evenodd">
        <path d="M0 0H18V18H0z"/>
        <path fill="#6596ff" d="M9 1.116c1.696 0 3.354.662 4.591 1.828 1.3 1.226 2.045 2.914 2.045 4.808 0 2.497-1.911 5.45-5.694 8.904-.528.482-1.334.487-1.869.014l-.016-.015-.11-.101c-3.71-3.41-5.583-6.329-5.583-8.802 0-1.894.744-3.582 2.045-4.808C5.646 1.778 7.304 1.116 9 1.116zm0 .932c-1.458 0-2.888.57-3.952 1.574-1.116 1.051-1.752 2.495-1.752 4.13 0 2.123 1.712 4.812 5.175 8.018l.105.097.11.1c.178.163.45.163.628 0 3.607-3.293 5.39-6.048 5.39-8.215 0-1.635-.636-3.079-1.752-4.13C11.888 2.618 10.458 2.048 9 2.048zm0 3.04c1.47 0 2.663 1.193 2.663 2.664 0 1.47-1.192 2.663-2.663 2.663-1.47 0-2.663-1.192-2.663-2.663 0-1.47 1.192-2.663 2.663-2.663zm0 .933c-.956 0-1.731.775-1.731 1.731 0 .956.775 1.731 1.731 1.731.956 0 1.731-.775 1.731-1.731 0-.956-.775-1.731-1.731-1.731z"/>
    </g>
</svg>