<svg xmlns="http://www.w3.org/2000/svg" xmlns:xlink="http://www.w3.org/1999/xlink" width="15" height="14" viewBox="0 0 15 14" version="1.1">
    <!-- Generator: Sketch 63.1 (92452) - https://sketch.com -->
    <title>yellow-star</title>
    <desc>Created with Sketch.</desc>
    <g id="Symbols" stroke="none" stroke-width="1" fill="none" fill-rule="evenodd">
        <g id="Job-/-Rating-/-PC" transform="translate(-133.000000, -78.000000)" fill="#FFDE5D" fill-rule="nonzero">
            <g id="yellow-star" transform="translate(133.000000, 78.000000)">
                <path d="M10.0902317,4.2095512 C9.444117,2.9312167 8.7969308,1.6528822 8.1518875,0.3745477 C8.002949,0.0816185 7.7490034,-0.0228452 7.5004153,0.0040784 C7.2507557,-0.0217683 6.9978816,0.0816185 6.8500145,0.3745477 L4.9105988,4.2106281 C3.4555013,4.4163247 1.9982608,4.6230983 0.5420917,4.8298719 C-0.035447,4.9117197 -0.159741,5.7065056 0.2088551,6.0586669 C1.244996,7.0429952 2.2789939,8.0294774 3.3140633,9.0127288 C3.0751187,10.375065 2.8361741,11.7363243 2.5972295,13.0975836 C2.4857934,13.7286738 3.0826192,14.218684 3.7040894,13.8999081 C4.9695314,13.2505099 6.2339018,12.59465 7.5004153,11.9280206 C8.7658572,12.59465 10.0312992,13.2505099 11.2956697,13.8999081 C11.9182114,14.218684 12.5150371,13.7146735 12.4046726,13.0835833 C12.1625135,11.722324 11.9267834,10.3675264 11.6856958,9.0094979 C12.7218367,8.0240927 13.7569061,7.0408413 14.7909039,6.056513 C15.1605716,5.7043517 15.0341345,4.9106428 14.4587388,4.8287949 C13.0047128,4.6220214 11.5453293,4.4163247 10.0902317,4.2095512 Z" id="yellow_star"/>
            </g>
        </g>
    </g>
</svg>